<?xml version="1.0" encoding="UTF-8" standalone="no"?>
<!-- Created with Inkscape (http://www.inkscape.org/) -->

<svg
   xmlns:dc="http://purl.org/dc/elements/1.1/"
   xmlns:cc="http://creativecommons.org/ns#"
   xmlns:rdf="http://www.w3.org/1999/02/22-rdf-syntax-ns#"
   xmlns:svg="http://www.w3.org/2000/svg"
   xmlns="http://www.w3.org/2000/svg"
   xmlns:sodipodi="http://sodipodi.sourceforge.net/DTD/sodipodi-0.dtd"
   xmlns:inkscape="http://www.inkscape.org/namespaces/inkscape"
   width="1052.3622"
   height="744.09448"
   id="svg4670"
   version="1.1"
   inkscape:version="0.48.3.1 r9886"
   sodipodi:docname="id03.svg">
  <defs
     id="defs4672" />
  <sodipodi:namedview
     id="base"
     pagecolor="#ffffff"
     bordercolor="#666666"
     borderopacity="1.0"
     inkscape:pageopacity="0.0"
     inkscape:pageshadow="2"
     inkscape:zoom="0.74342887"
     inkscape:cx="414.65012"
     inkscape:cy="454.5391"
     inkscape:document-units="px"
     inkscape:current-layer="layer1"
     showgrid="false"
     inkscape:window-width="1600"
     inkscape:window-height="876"
     inkscape:window-x="0"
     inkscape:window-y="24"
     inkscape:window-maximized="1" />
  <metadata
     id="metadata4675">
    <rdf:RDF>
      <cc:Work
         rdf:about="">
        <dc:format>image/svg+xml</dc:format>
        <dc:type
           rdf:resource="http://purl.org/dc/dcmitype/StillImage" />
        <dc:title></dc:title>
      </cc:Work>
    </rdf:RDF>
  </metadata>
  <g
     inkscape:label="Camada 1"
     inkscape:groupmode="layer"
     id="layer1"
     transform="translate(0,-308.2677)">
    <text
       xml:space="preserve"
       style="font-size:12.29368687px;font-style:normal;font-weight:normal;line-height:95.99999785%;letter-spacing:0px;word-spacing:0px;fill:#ffcd35;fill-opacity:1;stroke:none;font-family:Sans"
       x="271.98102"
       y="165.69664"
       id="text3956-5-3-1-0"
       sodipodi:linespacing="95.999998%"
       inkscape:export-filename="/home/gmendes/Documentos/projetos/_ciclo/GTL/g7627-3g.png"
       inkscape:export-xdpi="138"
       inkscape:export-ydpi="138"><tspan
         sodipodi:role="line"
         x="271.98102"
         y="165.69664"
         id="tspan3962-62-5-4-9"
         style="font-size:32.63300705px;font-style:normal;font-variant:normal;font-weight:bold;font-stretch:normal;line-height:95.99999785%;fill:#ffcd35;fill-opacity:1;font-family:Coco Gothic;-inkscape-font-specification:Coco Gothic Bold">GUARDA-CHUVA</tspan></text>
    <text
       xml:space="preserve"
       style="font-size:12.29368687px;font-style:normal;font-weight:normal;line-height:95.99999785%;letter-spacing:0px;word-spacing:0px;fill:#ffcd35;fill-opacity:1;stroke:none;font-family:Sans"
       x="618.82935"
       y="166.71129"
       id="text3956-5-3-1-0-8"
       sodipodi:linespacing="95.999998%"
       inkscape:export-filename="/home/gmendes/Documentos/projetos/_ciclo/GTL/g7627-3g.png"
       inkscape:export-xdpi="138"
       inkscape:export-ydpi="138"><tspan
         sodipodi:role="line"
         x="618.82935"
         y="166.71129"
         id="tspan3962-62-5-4-9-7"
         style="font-size:32.63300705px;font-style:normal;font-variant:normal;font-weight:bold;font-stretch:normal;line-height:95.99999785%;fill:#ffcd35;fill-opacity:1;font-family:Coco Gothic;-inkscape-font-specification:Coco Gothic Bold">VESTIÁRIO</tspan></text>
    <rect
       style="color:#000000;fill:#ffffff;fill-opacity:1;fill-rule:nonzero;stroke:none;stroke-width:0.1;marker:none;visibility:visible;display:inline;overflow:visible;enable-background:accumulate"
       id="rect4888"
       width="820.52234"
       height="466.75613"
       x="115.91992"
       y="433.48569"
       inkscape:export-filename="/home/gmendes/Documentos/projetos/_ciclo/pedestres/g4828.png"
       inkscape:export-xdpi="68.830002"
       inkscape:export-ydpi="68.830002" />
    <g
       id="g4828"
       transform="translate(-75.999263,0)"
       inkscape:export-xdpi="68.830002"
       inkscape:export-ydpi="68.830002">
      <g
         transform="translate(-10.481204,0)"
         id="g4780">
        <rect
           style="color:#000000;fill:#98450a;fill-opacity:1;fill-rule:nonzero;stroke:none;stroke-width:0.1;marker:none;visibility:visible;display:inline;overflow:visible;enable-background:accumulate"
           id="rect3708-3"
           width="11.583471"
           height="124.36991"
           x="530.9176"
           y="614.15491"
           rx="10.938571"
           ry="2.7744372" />
        <rect
           style="color:#000000;fill:#79380a;fill-opacity:1;fill-rule:nonzero;stroke:none;stroke-width:0.1;marker:none;visibility:visible;display:inline;overflow:visible;enable-background:accumulate"
           id="rect3710-0"
           width="23.166943"
           height="50.601482"
           x="525.12579"
           y="721.45441"
           rx="10.938571"
           ry="2.7744372" />
        <rect
           style="color:#000000;fill:#98450a;fill-opacity:1;fill-rule:nonzero;stroke:none;stroke-width:0.1;marker:none;visibility:visible;display:inline;overflow:visible;enable-background:accumulate"
           id="rect3714-6"
           width="9.2972612"
           height="28.653851"
           x="532.06067"
           y="491.91888"
           rx="10.938571"
           ry="2.7744372" />
        <path
           sodipodi:type="arc"
           style="color:#000000;fill:#98450a;fill-opacity:1;fill-rule:nonzero;stroke:none;stroke-width:0.1;marker:none;visibility:visible;display:inline;overflow:visible;enable-background:accumulate"
           id="path3716-8"
           sodipodi:cx="-238.17006"
           sodipodi:cy="156.27765"
           sodipodi:rx="3.4468665"
           sodipodi:ry="9.0795507"
           d="m -234.72319,156.27765 c 0,5.0145 -1.54322,9.07955 -3.44687,9.07955 -1.90365,0 -3.44687,-4.06505 -3.44687,-9.07955 0,-5.0145 1.54322,-9.07955 3.44687,-9.07955 1.90365,0 3.44687,4.06505 3.44687,9.07955 z"
           transform="matrix(0.90647237,0,0,0.90647237,752.60391,351.47681)" />
        <path
           inkscape:connector-curvature="0"
           style="color:#000000;fill:#ffcd35;fill-opacity:1;fill-rule:nonzero;stroke:none;stroke-width:0.1;marker:none;visibility:visible;display:inline;overflow:visible;enable-background:accumulate"
           d="m 536.70479,497.12882 c -72.0849,0 -131.62451,61.54107 -140.81482,141.26805 6.50624,-12.06591 17.47903,-19.97619 29.4037,-20.19733 1.16174,-0.0216 2.33596,0.0423 3.51258,0.16996 9.28335,1.00727 17.19161,6.57415 22.52017,14.78683 7.326,-9.35179 17.76489,-14.75477 28.69552,-13.56876 11.68051,1.26738 21.16518,9.74855 26.08941,21.64203 6.15509,-12.73082 17.54098,-21.27377 30.59344,-21.27377 13.13771,0 24.60897,8.65994 30.73508,21.52872 4.89247,-12.03091 14.43652,-20.6203 26.20272,-21.89698 10.93602,-1.1866 21.36897,4.20843 28.69551,13.56876 5.32854,-8.21103 13.23795,-13.77968 22.52017,-14.78683 13.05516,-1.41654 25.38447,6.5709 32.57635,19.46083 C 668.02815,558.37867 608.6188,497.12882 536.70479,497.12882 z"
           id="path3644-6" />
        <path
           inkscape:connector-curvature="0"
           style="color:#000000;fill:#ffb135;fill-opacity:1;fill-rule:nonzero;stroke:none;stroke-width:0.10141614;marker:none;visibility:visible;display:inline;overflow:visible;enable-background:accumulate"
           d="m 536.70479,497.18548 c -42.96362,0 -78.85933,56.9076 -87.61622,132.88318 0.78604,0.98294 1.53808,2.00912 2.23785,3.08767 7.326,-9.35179 17.76489,-14.75477 28.69552,-13.56876 11.68051,1.26738 21.16518,9.74855 26.08941,21.64203 6.15509,-12.73082 17.54098,-21.27377 30.59344,-21.27377 13.13771,0 24.60897,8.65994 30.73508,21.52872 4.89247,-12.03091 14.43652,-20.6203 26.20272,-21.89698 10.93602,-1.1866 21.36897,4.20843 28.69551,13.56876 0.63286,-0.97521 1.30759,-1.90695 2.01124,-2.8044 -8.70058,-76.11641 -44.62791,-133.16645 -87.64455,-133.16645 z"
           id="path3648-7" />
      </g>
      <g
         transform="matrix(-2.046625,0,0,-2.046625,532.59203,748.35199)"
         id="g34-3-1-8-0-6-4-1">
        <path
           inkscape:connector-curvature="0"
           id="path36-1-9-4-6-2-3-5"
           style="fill:#ffcd35;fill-opacity:1;fill-rule:nonzero;stroke:none"
           d="m 0,0 c 0,0 6.882,-6.44 10.105,-9.989 5.525,-6.084 9.697,-10.454 17.91,-10.71 13.614,-0.423 22.227,8.29 22.671,20.512 0.443,12.223 -10.993,23.175 -23.881,21.178 0,0 -5.991,-0.484 -11.617,-5.507 C 9.561,10.463 0,0 0,0" />
      </g>
      <g
         transform="matrix(1.1756638,0,0,1.1756638,38.077067,-9.0498948)"
         id="g3377-1-7-1">
        <g
           id="g38-0-94-4-0-5-8-4"
           transform="matrix(1.7408249,0,0,-1.7408249,377.73584,623.40715)">
          <path
             d="m 0,0 c 0,-1.061 -0.861,-1.921 -1.921,-1.921 -1.061,0 -1.922,0.86 -1.922,1.921 0,1.061 0.861,1.922 1.922,1.922 C -0.861,1.922 0,1.061 0,0"
             style="fill:#ffffff;fill-opacity:1;fill-rule:evenodd;stroke:none"
             id="path40-7-9-9-2-0-3-5"
             inkscape:connector-curvature="0" />
        </g>
        <g
           id="g42-6-48-9-0-0-3-3"
           transform="matrix(1.7408249,0,0,-1.7408249,371.5359,627.15916)">
          <path
             d="m 0,0 1.641,-0.516 0.796,-0.843 1.406,-2.999 4.264,-2.25 -0.796,-1.453 -3.749,1.453 -1.921,1.406 -1.172,-4.349 2.811,-4.133 0,-7.732 -2.014,0 -0.329,6.374 -2.858,3.748 -2.742,-5.342 -2.601,-4.452 -1.874,1.125 2.577,4.733 1.898,6.373 2.038,5.295 -1.889,-0.429 -1.671,-3.882 -1.547,0.609 1.312,4.593 4.218,2.437 c 0,0 1.754,0.375 2.202,0.234"
             style="fill:#ffffff;fill-opacity:1;fill-rule:evenodd;stroke:none"
             id="path44-4-38-6-1-0-3-0"
             inkscape:connector-curvature="0" />
        </g>
      </g>
      <text
         inkscape:export-ydpi="138"
         inkscape:export-xdpi="138"
         inkscape:export-filename="/home/gmendes/Documentos/projetos/_ciclo/GTL/g7627-3g.png"
         sodipodi:linespacing="95.999998%"
         id="text3956-5-3-1-3-3"
         y="693.76953"
         x="546.04333"
         style="font-size:8.57708168px;font-style:normal;font-weight:normal;line-height:95.99999785%;letter-spacing:0px;word-spacing:0px;fill:#ffb135;fill-opacity:1;stroke:none;font-family:Sans"
         xml:space="preserve"><tspan
           style="font-size:40.02637863px;font-style:normal;font-variant:normal;font-weight:normal;font-stretch:normal;line-height:95.99999785%;fill:#ffb135;fill-opacity:1;font-family:Coco Gothic;-inkscape-font-specification:Coco Gothic"
           id="tspan3960-7-4-5-4-9"
           y="693.76953"
           x="546.04333"
           sodipodi:role="line">PROGRAMA</tspan><tspan
           id="tspan4807"
           style="font-size:40.02637863px;font-style:normal;font-variant:normal;font-weight:bold;font-stretch:normal;line-height:95.99999785%;fill:#ffb135;fill-opacity:1;font-family:Coco Gothic;-inkscape-font-specification:Coco Gothic Bold"
           y="731.7121"
           x="546.04333"
           sodipodi:role="line">TRANSPORTE</tspan><tspan
           style="font-size:40.02637863px;font-style:normal;font-variant:normal;font-weight:bold;font-stretch:normal;line-height:95.99999785%;fill:#ffb135;fill-opacity:1;font-family:Coco Gothic;-inkscape-font-specification:Coco Gothic Bold"
           id="tspan3962-62-5-4-0-5"
           y="770.13745"
           x="546.04333"
           sodipodi:role="line">LIVRE</tspan></text>
    </g>
  </g>
</svg>
