<?xml version="1.0" encoding="UTF-8" standalone="no"?>
<!-- Created with Inkscape (http://www.inkscape.org/) -->

<svg
   xmlns:dc="http://purl.org/dc/elements/1.1/"
   xmlns:cc="http://creativecommons.org/ns#"
   xmlns:rdf="http://www.w3.org/1999/02/22-rdf-syntax-ns#"
   xmlns:svg="http://www.w3.org/2000/svg"
   xmlns="http://www.w3.org/2000/svg"
   xmlns:sodipodi="http://sodipodi.sourceforge.net/DTD/sodipodi-0.dtd"
   xmlns:inkscape="http://www.inkscape.org/namespaces/inkscape"
   width="1052.3622"
   height="744.09448"
   id="svg3556"
   version="1.1"
   inkscape:version="0.48.3.1 r9886"
   sodipodi:docname="id10.svg">
  <defs
     id="defs3558" />
  <sodipodi:namedview
     id="base"
     pagecolor="#ffffff"
     bordercolor="#666666"
     borderopacity="1.0"
     inkscape:pageopacity="0.0"
     inkscape:pageshadow="2"
     inkscape:zoom="0.83853691"
     inkscape:cx="252.25743"
     inkscape:cy="390.26065"
     inkscape:document-units="px"
     inkscape:current-layer="layer1"
     showgrid="false"
     inkscape:window-width="1600"
     inkscape:window-height="876"
     inkscape:window-x="0"
     inkscape:window-y="24"
     inkscape:window-maximized="1" />
  <metadata
     id="metadata3561">
    <rdf:RDF>
      <cc:Work
         rdf:about="">
        <dc:format>image/svg+xml</dc:format>
        <dc:type
           rdf:resource="http://purl.org/dc/dcmitype/StillImage" />
        <dc:title></dc:title>
      </cc:Work>
    </rdf:RDF>
  </metadata>
  <g
     inkscape:label="Camada 1"
     inkscape:groupmode="layer"
     id="layer1"
     transform="translate(0,-308.2677)">
    <g
       id="g5853"
       transform="translate(6.1954689,80)" />
    <g
       id="g5021"
       transform="matrix(0.71895023,0,0,0.71895023,1648.7064,130.85957)">
      <path
         inkscape:export-ydpi="138"
         inkscape:export-xdpi="138"
         inkscape:export-filename="/home/gmendes/Documentos/projetos/_ciclo/GTL/g7627-3g.png"
         d="m 475.34392,629.336 c 0,57.78856 -46.84689,104.63545 -104.63545,104.63545 -57.78857,0 -104.63546,-46.84689 -104.63546,-104.63545 0,-57.78857 46.84689,-104.63545 104.63546,-104.63545 57.78856,0 104.63545,46.84688 104.63545,104.63545 z"
         sodipodi:ry="104.63545"
         sodipodi:rx="104.63545"
         sodipodi:cy="629.336"
         sodipodi:cx="370.70847"
         id="path3934-3-9-9"
         style="color:#000000;fill:#347091;fill-opacity:1;fill-rule:nonzero;stroke:none;stroke-width:1;marker:none;visibility:visible;display:inline;overflow:visible;enable-background:accumulate"
         sodipodi:type="arc"
         transform="matrix(1.5877292,0,0,1.5877292,-2458.5549,-321.20524)" />
      <path
         inkscape:export-ydpi="138"
         inkscape:export-xdpi="138"
         inkscape:export-filename="/home/gmendes/Documentos/projetos/_ciclo/GTL/g7627-3g.png"
         transform="matrix(1.4248851,0,0,1.4248851,-2398.1872,-218.72161)"
         d="m 475.34392,629.336 c 0,57.78856 -46.84689,104.63545 -104.63545,104.63545 -57.78857,0 -104.63546,-46.84689 -104.63546,-104.63545 0,-57.78857 46.84689,-104.63545 104.63546,-104.63545 57.78856,0 104.63545,46.84688 104.63545,104.63545 z"
         sodipodi:ry="104.63545"
         sodipodi:rx="104.63545"
         sodipodi:cy="629.336"
         sodipodi:cx="370.70847"
         id="path3934-16-1"
         style="color:#000000;fill:#ffffff;fill-opacity:1;fill-rule:nonzero;stroke:none;stroke-width:1;marker:none;visibility:visible;display:inline;overflow:visible;enable-background:accumulate"
         sodipodi:type="arc" />
      <g
         inkscape:export-ydpi="138"
         inkscape:export-xdpi="138"
         inkscape:export-filename="/home/gmendes/Documentos/projetos/_ciclo/GTL/g7627-3g.png"
         transform="matrix(0.52180278,0,0,0.52180278,-2065.6463,400.22186)"
         inkscape:label="Layer 1"
         id="layer1-1-3-1-6">
        <g
           id="g34-3-1-8"
           transform="matrix(4.6403408,0,0,-4.6403408,386.10689,532.57842)">
          <path
             d="m 0,0 c 0,0 6.882,-6.44 10.105,-9.989 5.525,-6.084 9.697,-10.454 17.91,-10.71 13.614,-0.423 22.227,8.29 22.671,20.512 0.443,12.223 -10.993,23.175 -23.881,21.178 0,0 -5.991,-0.484 -11.617,-5.507 C 9.561,10.463 0,0 0,0"
             style="fill:#ffcd35;fill-opacity:1;fill-rule:nonzero;stroke:none"
             id="path36-1-9-4"
             inkscape:connector-curvature="0" />
        </g>
        <g
           id="g38-0-94-4"
           transform="matrix(4.6403408,0,0,-4.6403408,541.89842,477.06417)">
          <path
             d="m 0,0 c 0,-1.061 -0.861,-1.921 -1.921,-1.921 -1.061,0 -1.922,0.86 -1.922,1.921 0,1.061 0.861,1.922 1.922,1.922 C -0.861,1.922 0,1.061 0,0"
             style="fill:#ffffff;fill-opacity:1;fill-rule:evenodd;stroke:none"
             id="path40-7-9-9"
             inkscape:connector-curvature="0" />
        </g>
        <g
           id="g42-6-48-9"
           transform="matrix(4.6403408,0,0,-4.6403408,525.37187,487.06551)">
          <path
             d="m 0,0 1.641,-0.516 0.796,-0.843 1.406,-2.999 4.264,-2.25 -0.796,-1.453 -3.749,1.453 -1.921,1.406 -1.172,-4.349 2.811,-4.133 0,-7.732 -2.014,0 -0.329,6.374 -2.858,3.748 -2.742,-5.342 -2.601,-4.452 -1.874,1.125 2.577,4.733 1.898,6.373 2.038,5.295 -1.889,-0.429 -1.671,-3.882 -1.547,0.609 1.312,4.593 4.218,2.437 c 0,0 1.754,0.375 2.202,0.234"
             style="fill:#ffffff;fill-opacity:1;fill-rule:evenodd;stroke:none"
             id="path44-4-38-6"
             inkscape:connector-curvature="0" />
        </g>
        <g
           id="g46-2-6-3"
           transform="matrix(4.6403408,0,0,-4.6403408,373.9738,543.47023)">
          <path
             d="m 0,0 c 0,0 -6.44,-6.882 -9.989,-10.105 -6.084,-5.526 -10.454,-9.697 -10.71,-17.91 -0.424,-13.614 8.29,-22.227 20.512,-22.671 12.223,-0.443 23.174,10.993 21.178,23.881 0,0 -0.484,5.99 -5.506,11.617 -1.326,1.486 -3.032,3.246 -4.823,5.032 C 5.667,-5.179 0,0 0,0"
             style="fill:#73c3bc;fill-opacity:1;fill-rule:nonzero;stroke:none"
             id="path48-7-9-9"
             inkscape:connector-curvature="0" />
        </g>
        <g
           id="g50-6-7-9"
           transform="matrix(4.6403408,0,0,-4.6403408,379.55892,660.50983)">
          <path
             d="m 0,0 c 0,-0.756 -0.614,-1.37 -1.371,-1.37 -0.756,0 -1.37,0.614 -1.37,1.37 0,0.757 0.614,1.371 1.37,1.371 C -0.614,1.371 0,0.757 0,0"
             style="fill:#ffffff;fill-opacity:1;fill-rule:nonzero;stroke:none"
             id="path52-1-0-2"
             inkscape:connector-curvature="0" />
        </g>
        <g
           id="g54-4-7-0"
           transform="matrix(4.6403408,0,0,-4.6403408,400.27941,659.6964)">
          <path
             d="m 0,0 c 0,-0.757 -0.614,-1.371 -1.371,-1.371 -0.757,0 -1.37,0.614 -1.37,1.371 0,0.757 0.613,1.37 1.37,1.37 C -0.614,1.37 0,0.757 0,0"
             style="fill:#ffffff;fill-opacity:1;fill-rule:nonzero;stroke:none"
             id="path56-1-6-5"
             inkscape:connector-curvature="0" />
        </g>
        <g
           id="g58-9-9-5"
           transform="matrix(4.6403408,0,0,-4.6403408,335.19262,659.39244)">
          <path
             d="m 0,0 c 0,-0.757 -0.613,-1.37 -1.371,-1.37 -0.756,0 -1.37,0.613 -1.37,1.37 0,0.757 0.614,1.371 1.37,1.371 C -0.613,1.371 0,0.757 0,0"
             style="fill:#ffffff;fill-opacity:1;fill-rule:nonzero;stroke:none"
             id="path60-5-3-7"
             inkscape:connector-curvature="0" />
        </g>
        <g
           id="g62-6-5-1"
           transform="matrix(4.6403408,0,0,-4.6403408,356.08065,662.30193)">
          <path
             d="m 0,0 c 0,-0.757 -0.613,-1.37 -1.37,-1.37 -0.757,0 -1.371,0.613 -1.371,1.37 0,0.757 0.614,1.371 1.371,1.371 C -0.613,1.371 0,0.757 0,0"
             style="fill:#ffffff;fill-opacity:1;fill-rule:nonzero;stroke:none"
             id="path64-0-9-5"
             inkscape:connector-curvature="0" />
        </g>
        <g
           id="g66-3-3-1"
           transform="matrix(4.6403408,0,0,-4.6403408,339.05572,711.14757)">
          <path
             d="m 0,0 c -0.694,0 -1.256,0.562 -1.256,1.255 0,0.693 0.562,1.256 1.256,1.256 0.693,0 1.255,-0.563 1.255,-1.256 C 1.255,0.562 0.693,0 0,0 m 0,4.141 c -1.595,0 -2.886,-1.292 -2.886,-2.886 0,-1.593 1.291,-2.885 2.886,-2.885 1.594,0 2.886,1.292 2.886,2.885 0,1.594 -1.292,2.886 -2.886,2.886"
             style="fill:#ffffff;fill-opacity:1;fill-rule:evenodd;stroke:none"
             id="path68-6-9-5"
             inkscape:connector-curvature="0" />
        </g>
        <g
           id="g70-2-3-3"
           transform="matrix(4.6403408,0,0,-4.6403408,417.13269,711.14757)">
          <path
             d="m 0,0 c -0.693,0 -1.256,0.562 -1.256,1.255 0,0.693 0.563,1.256 1.256,1.256 0.693,0 1.255,-0.563 1.255,-1.256 C 1.255,0.562 0.693,0 0,0 m 0,4.141 c -1.594,0 -2.886,-1.292 -2.886,-2.886 0,-1.593 1.292,-2.885 2.886,-2.885 1.594,0 2.886,1.292 2.886,2.885 0,1.594 -1.292,2.886 -2.886,2.886"
             style="fill:#ffffff;fill-opacity:1;fill-rule:evenodd;stroke:none"
             id="path72-5-12-6"
             inkscape:connector-curvature="0" />
        </g>
        <g
           id="g74-0-4-1"
           transform="matrix(4.6403408,0,0,-4.6403408,427.75907,672.03551)">
          <path
             d="m 0,0 -3.265,0 c -0.083,0 -0.151,0.071 -0.151,0.158 l 0,4.717 c 0,0.086 0,0.282 0.274,0.282 l 0.949,0 c 0.083,0 0.563,0 0.785,-0.396 L 0.157,0.477 C 0.222,0.267 0.157,0 0,0 M -5.268,0.152 C -5.268,0.068 -5.335,0 -5.418,0 L -6.724,0 C -6.783,0.626 -7.2,1.114 -7.713,1.114 -8.225,1.114 -8.643,0.626 -8.701,0 l -0.105,0 c -0.083,0 -0.151,0.068 -0.151,0.152 l 0,4.661 c 0,0.083 0.068,0.151 0.151,0.151 l 3.388,0 c 0.083,0 0.15,-0.068 0.15,-0.151 l 0,-4.661 z m -4.771,0 C -10.039,0.068 -10.106,0 -10.19,0 l -0.163,0 c -0.089,0.582 -0.494,1.022 -0.981,1.022 -0.487,0 -0.892,-0.44 -0.981,-1.022 l -1.262,0 c -0.083,0 -0.151,0.068 -0.151,0.152 l 0,4.661 c 0,0.083 0.068,0.151 0.151,0.151 l 3.387,0 c 0.084,0 0.151,-0.068 0.151,-0.151 l 0,-4.661 z m -4.556,0 C -14.595,0.068 -14.663,0 -14.746,0 l -1.625,0 c -0.162,0.399 -0.48,0.674 -0.85,0.674 -0.37,0 -0.688,-0.275 -0.85,-0.674 l -0.062,0 c -0.083,0 -0.151,0.068 -0.151,0.152 l 0,4.661 c 0,0.083 0.068,0.151 0.151,0.151 l 3.387,0 c 0.083,0 0.151,-0.068 0.151,-0.151 l 0,-4.661 z m -4.652,0 C -19.247,0.068 -19.315,0 -19.398,0 l -1.116,0 c -0.063,0.626 -0.52,1.114 -1.081,1.114 -0.56,0 -1.017,-0.488 -1.082,-1.114 l -0.108,0 c -0.084,0 -0.152,0.068 -0.152,0.152 l 0,4.661 c 0,0.083 0.068,0.151 0.152,0.151 l 3.387,0 c 0.083,0 0.151,-0.068 0.151,-0.151 l 0,-4.661 z m 23.094,-4.44 -1.035,0 0,2.505 c 0,0 -0.037,0.415 -0.35,0.616 -0.312,0.201 -0.524,0.244 -0.524,0.244 L 1.509,0.115 -0.377,6.509 c 0,0 -1.11,0.492 -3.621,0.623 -2.511,0.131 -17.437,-0.028 -17.437,-0.028 0,0 -1.3,0.096 -1.935,-0.601 -0.559,-0.614 -0.458,-1.595 -0.458,-1.595 l 0,-8.609 19.16,0 0,-0.571 -12.313,-0.016 c 0,0 0.002,-0.016 0.004,-0.035 0.793,-0.595 1.331,-1.51 1.417,-2.556 l 9.774,0 0.003,0 c 0.15,1.799 1.655,3.214 3.493,3.214 1.838,0 3.343,-1.415 3.493,-3.214 l 0.096,0 1.878,0 c 0,0 0.648,0.157 0.67,0.627 0.023,0.468 0,1.964 0,1.964"
             style="fill:#ffffff;fill-opacity:1;fill-rule:evenodd;stroke:none"
             id="path76-3-6-1"
             inkscape:connector-curvature="0" />
        </g>
        <g
           id="g78-9-2-5"
           transform="matrix(4.6403408,0,0,-4.6403408,323.00245,701.27107)">
          <path
             d="m 0,0 c 0.006,0.026 0.013,0.051 0.02,0.076 0.008,0.03 0.016,0.059 0.025,0.089 0.043,0.147 0.094,0.285 0.153,0.412 0.258,0.575 0.664,1.069 1.169,1.436 l -2.825,0 c 0,0 -0.045,-0.84 0,-1.64 0.044,-0.8 0.696,-0.962 0.696,-0.962 0,0 0.001,0 0.665,0.01 C -0.08,-0.38 -0.047,-0.188 0,0"
             style="fill:#ffffff;fill-opacity:1;fill-rule:evenodd;stroke:none"
             id="path80-4-57-4"
             inkscape:connector-curvature="0" />
        </g>
        <g
           id="g82-5-0-4"
           transform="matrix(4.6403408,0,0,-4.6403408,363.88849,532.57842)">
          <path
             d="m 0,0 c 0,0 -6.882,-6.44 -10.104,-9.989 -5.526,-6.084 -9.698,-10.454 -17.911,-10.71 -13.614,-0.423 -22.226,8.29 -22.67,20.512 -0.443,12.223 10.992,23.175 23.88,21.178 0,0 5.991,-0.484 11.618,-5.507 C -9.56,10.463 0,0 0,0"
             style="fill:#566f3f;fill-opacity:1;fill-rule:nonzero;stroke:none"
             id="path84-2-60-9"
             inkscape:connector-curvature="0" />
        </g>
        <g
           id="g86-7-97-9"
           transform="matrix(4.6403408,0,0,-4.6403408,201.32714,495.56476)">
          <path
             d="m 0,0 c 0,-0.734 -0.595,-1.33 -1.329,-1.33 -0.734,0 -1.329,0.596 -1.329,1.33 0,0.734 0.595,1.329 1.329,1.329 C -0.595,1.329 0,0.734 0,0"
             style="fill:#ffffff;fill-opacity:1;fill-rule:evenodd;stroke:none"
             id="path88-7-5-9"
             inkscape:connector-curvature="0" />
        </g>
        <g
           id="g90-5-0-0"
           transform="matrix(4.6403408,0,0,-4.6403408,190.2655,502.29184)">
          <path
             d="m 0,0 1.134,-0.356 0.552,-0.584 2.01,0.668 1.386,2.173 1.039,-0.724 -1.517,-2.383 -3.47,-1.334 -0.81,-4.066 1.945,-2.859 0,-5.349 -1.394,0 -0.227,4.409 -1.978,2.592 -1.896,-3.695 -1.799,-3.079 -1.296,0.777 1.783,3.275 1.212,4.69 1.511,3.382 -1.309,-0.298 -1.155,-2.684 -1.07,0.421 0.908,3.177 2.918,1.685 c 0,0 1.213,0.26 1.523,0.162"
             style="fill:#ffffff;fill-opacity:1;fill-rule:evenodd;stroke:none"
             id="path92-5-2-2"
             inkscape:connector-curvature="0" />
        </g>
        <g
           id="g94-2-53-7"
           transform="matrix(4.6403408,0,0,-4.6403408,287.56557,531.61093)">
          <path
             d="m 0,0 c -1.152,0.012 -13.248,0 -13.248,0 0,0 -0.764,-0.171 -0.424,0.706 l 1.433,3.693 c 0,0 0.398,0.881 1.244,0.847 0.847,-0.034 8.696,0 8.696,0 0,0 0.931,-0.254 1.15,-0.898 C -0.933,3.705 0.237,0.706 0.237,0.706 0.237,0.706 0.644,-0.028 0,0 m -1.149,-4.161 c -0.636,0 -1.15,0.515 -1.15,1.151 0,0.635 0.514,1.15 1.15,1.15 C -0.515,-1.86 0,-2.375 0,-3.01 0,-3.646 -0.515,-4.161 -1.149,-4.161 m -11.09,0 c -0.635,0 -1.15,0.515 -1.15,1.151 0,0.635 0.515,1.15 1.15,1.15 0.635,0 1.15,-0.515 1.15,-1.15 0,-0.636 -0.515,-1.151 -1.15,-1.151 M 1.321,0 C 0.984,0.919 0.108,3.302 -0.356,4.518 -0.932,6.026 -2.66,6.077 -2.66,6.077 c 0,0 -7.302,-0.035 -8.429,-0.001 -1.127,0.034 -1.769,-1.135 -1.769,-1.135 L -14.848,0 c 0,0 -0.843,-0.724 -0.843,-1.445 l 0,-3.219 c 0,-0.911 0.524,-1.43 1.285,-1.814 l 0,-1.918 c 0,-0.333 0.271,-0.604 0.606,-0.604 l 1.599,0 c 0.334,0 0.605,0.271 0.605,0.604 l 0,1.936 9.744,0 0,-1.936 C -1.852,-8.729 -1.581,-9 -1.247,-9 l 1.6,0 c 0.334,0 0.605,0.271 0.605,0.604 l 0,1.89 c 0.793,0.371 1.345,0.908 1.345,1.842 l 0,2.951 c 0,0.766 -0.412,1.288 -0.982,1.713"
             style="fill:#ffffff;fill-opacity:1;fill-rule:evenodd;stroke:none"
             id="path96-8-21-0"
             inkscape:connector-curvature="0" />
        </g>
        <g
           id="g98-8-2-6"
           transform="matrix(4.6403408,0,0,-4.6403408,373.9738,521.25413)">
          <path
             d="m 0,0 c 0,0 -6.44,6.882 -9.989,10.105 -6.084,5.525 -10.454,9.697 -10.71,17.91 -0.424,13.614 8.29,22.227 20.512,22.671 12.223,0.443 23.174,-10.993 21.178,-23.881 0,0 -0.484,-5.991 -5.506,-11.617 C 10.462,9.56 0,0 0,0"
             style="fill:#ee393a;fill-opacity:1;fill-rule:nonzero;stroke:none"
             id="path100-3-0-3"
             inkscape:connector-curvature="0" />
        </g>
        <g
           id="g102-5-19-1"
           transform="matrix(4.6403408,0,0,-4.6403408,422.66583,422.90538)">
          <path
             d="m 0,0 c -2.588,0 -4.686,2.098 -4.686,4.686 0,1.703 0.912,3.189 2.27,4.01 l 1.769,-4.211 c 0,0 0.312,-0.63 0.871,-0.35 0.464,0.231 0.214,0.782 0.214,0.782 L -1.317,9.182 C -0.898,9.304 -0.458,9.373 0,9.373 2.588,9.373 4.686,7.274 4.686,4.686 4.686,2.098 2.588,0 0,0 m -10.208,5.905 0.006,1.474 0.881,0.023 c 0,0 0.231,0.093 0.231,0.301 0,0.208 -0.277,0.3 -0.277,0.3 l -1.04,0.023 c 0,0 -0.347,0.116 -0.347,-0.346 0,-0.463 0.003,-1.189 0.003,-1.189 l -3.402,6.113 9.255,0 -5.31,-6.699 z m -4.346,-0.676 c -0.17,1.685 -1.049,3.16 -2.335,4.122 l 1.613,2.721 3.782,-6.843 -3.06,0 z m -1.156,0 -3.621,0 1.861,3.14 c 0.956,-0.752 1.613,-1.868 1.76,-3.14 M -20.362,0 c -2.588,0 -4.686,2.098 -4.686,4.686 0,2.588 2.098,4.687 4.686,4.687 0.662,0 1.29,-0.139 1.861,-0.386 l -2.194,-3.804 c 0,0 -0.739,-0.898 0.278,-1.166 l 4.688,0 C -16.055,1.747 -18.001,0 -20.362,0 m 20.306,10.524 c -0.594,0 -1.168,-0.088 -1.71,-0.252 l -2.257,5.487 c 0,0 -0.097,0.913 -1.067,0.913 l -2.682,0 c 0,0 -0.508,-0.115 -0.462,-0.647 0.046,-0.532 0.439,-0.601 0.508,-0.601 0.069,0 2.543,0.046 2.543,0.046 l 0.67,-1.664 -10.341,-0.028 -0.57,0.976 c 0,0 2.495,0.266 2.589,0.277 0.187,0.021 0.65,0.879 -0.39,0.902 -1.04,0.023 -3.858,-0.022 -3.858,-0.022 0,0 -0.378,-0.057 -0.355,-0.404 0.023,-0.346 0.033,-0.587 0.033,-0.587 0,0 0.075,-0.35 0.446,-0.327 0.369,0.023 0.287,-10e-4 0.287,-10e-4 l 0.67,-1.272 -1.93,-3.345 c -0.755,0.352 -1.597,0.549 -2.485,0.549 -3.255,0 -5.894,-2.638 -5.894,-5.894 0,-3.254 2.639,-5.893 5.894,-5.893 3.048,0 5.554,2.314 5.862,5.28 l 3.798,0 0.018,-2.199 c 0,0 -0.691,0.023 -0.857,0.003 -0.167,-0.021 -0.221,-0.15 -0.221,-0.275 0,-0.126 0.058,-0.259 0.279,-0.275 0.221,-0.018 1.168,0.024 1.168,0.024 0,0 0.15,-0.079 0.162,0.509 l 0,2.213 6.374,8.055 0.953,-2.268 C -4.709,8.803 -5.948,6.861 -5.948,4.63 c 0,-3.254 2.637,-5.893 5.892,-5.893 3.256,0 5.894,2.639 5.894,5.893 0,3.256 -2.638,5.894 -5.894,5.894"
             style="fill:#ffffff;fill-opacity:1;fill-rule:nonzero;stroke:none"
             id="path104-6-6-7"
             inkscape:connector-curvature="0" />
        </g>
      </g>
      <g
         inkscape:export-ydpi="138"
         inkscape:export-xdpi="138"
         inkscape:export-filename="/home/gmendes/Documentos/projetos/_ciclo/GTL/id-carona02.png"
         transform="matrix(2.3426587,0,0,-2.3426587,-1919.9819,670.47261)"
         id="g86-7-7-0-9">
        <path
           inkscape:connector-curvature="0"
           id="path88-7-3-4"
           style="fill:#ffffff;fill-opacity:1;fill-rule:evenodd;stroke:none"
           d="m 0,0 c 0,-0.734 -0.595,-1.33 -1.329,-1.33 -0.734,0 -1.329,0.596 -1.329,1.33 0,0.734 0.595,1.329 1.329,1.329 C -0.595,1.329 0,0.734 0,0" />
      </g>
      <rect
         inkscape:export-ydpi="138"
         inkscape:export-xdpi="138"
         inkscape:export-filename="/home/gmendes/Documentos/projetos/_ciclo/GTL/id-carona02.png"
         ry="4.257175"
         rx="16.784452"
         y="674.94128"
         x="-1929.0393"
         height="4.257175"
         width="11.707231"
         id="rect5578-6"
         style="color:#000000;fill:#ffffff;fill-opacity:1;fill-rule:nonzero;stroke:none;stroke-width:0.1;marker:none;visibility:visible;display:inline;overflow:visible;enable-background:accumulate" />
    </g>
    <g
       style="font-size:13.56211948px;font-style:normal;font-weight:normal;line-height:95.99999785%;letter-spacing:0px;word-spacing:0px;fill:#347091;fill-opacity:1;stroke:none;font-family:Sans"
       id="text3956-5-3-1">
      <path
         d="m 441.11464,580.3113 0,-44.04977 c 0,-1.01259 0.48522,-1.51891 1.45567,-1.51895 l 15.69589,0 c 2.06745,4e-5 3.98724,0.40088 5.75938,1.2025 1.81428,0.75953 3.37543,1.81436 4.68345,3.1645 1.30796,1.30803 2.3206,2.86918 3.03792,4.68345 0.75944,1.77215 1.13918,3.64975 1.13922,5.6328 -4e-5,1.94092 -0.37978,3.79742 -1.13922,5.56951 -0.71732,1.77214 -1.72996,3.33329 -3.03792,4.68345 -1.26583,1.30801 -2.78478,2.36284 -4.55687,3.1645 -1.77214,0.75949 -3.67084,1.13923 -5.69609,1.13922 l -11.8985,0 0,16.32879 c -10e-6,0.92825 -0.46414,1.39237 -1.39238,1.39237 l -2.65817,0 c -0.92826,0 -1.39238,-0.46412 -1.39238,-1.39237 m 26.32859,-30.94876 c -3e-5,-1.22357 -0.25319,-2.38388 -0.75947,-3.48094 -0.46416,-1.13918 -1.11816,-2.13073 -1.96199,-2.97463 -0.8017,-0.84382 -1.77214,-1.51892 -2.91134,-2.02527 -1.09705,-0.50628 -2.27846,-0.75944 -3.54423,-0.75948 l -11.70863,0 0,18.48064 11.70863,0 c 1.26577,3e-5 2.44718,-0.25313 3.54423,-0.75947 1.097,-0.5063 2.06745,-1.18139 2.91134,-2.02528 0.84383,-0.84384 1.49783,-1.81428 1.96199,-2.91134 0.50628,-1.13918 0.75944,-2.32059 0.75947,-3.54423"
         style="font-size:63.28989029px;font-variant:normal;font-stretch:normal;line-height:95.99999785%;fill:#347091;font-family:Coco Gothic;-inkscape-font-specification:Coco Gothic"
         id="path3037" />
      <path
         d="m 510.0314,549.6157 c -4e-5,-1.26576 -0.2532,-2.46827 -0.75948,-3.60752 -0.46416,-1.13918 -1.11816,-2.13073 -1.96199,-2.97463 -0.8439,-0.88602 -1.83544,-1.58221 -2.97462,-2.08857 -1.13925,-0.54847 -2.38395,-0.82272 -3.73411,-0.82276 l -14.24022,0 0,18.98696 14.30351,0 c 1.35016,3e-5 2.59486,-0.25313 3.73411,-0.75948 1.13918,-0.50629 2.10963,-1.18138 2.91133,-2.02527 0.84383,-0.88603 1.49783,-1.89867 1.96199,-3.03792 0.50628,-1.18138 0.75944,-2.40498 0.75948,-3.67081 m -29.11335,30.6956 0,-44.04977 c -10e-6,-1.01259 0.46412,-1.51891 1.39237,-1.51895 l 18.29078,0 c 2.06744,4e-5 4.00833,0.40088 5.82267,1.2025 1.81428,0.75953 3.37543,1.81436 4.68345,3.1645 1.35015,1.35022 2.40498,2.93247 3.1645,4.74674 0.80163,1.81435 1.20247,3.75523 1.20251,5.82267 -4e-5,2.99575 -0.80171,5.69612 -2.40502,8.10111 -1.60338,2.40503 -3.69194,4.19824 -6.2657,5.37964 l 8.35427,17.15156 c 0.0843,0.33754 0.12654,0.52741 0.12658,0.56961 -4e-5,0.54851 -0.37978,0.82276 -1.13922,0.82276 l -3.48095,0 c -0.42196,0 -0.75951,-0.10548 -1.01263,-0.31645 -0.211,-0.21096 -0.42197,-0.50631 -0.6329,-0.88605 l -7.65808,-16.07564 c -0.1266,2e-5 -0.35867,0.0211 -0.69619,0.0633 -0.33757,2e-5 -0.71731,2e-5 -1.13922,0 -0.37976,2e-5 -0.78059,2e-5 -1.2025,0 -0.37977,2e-5 -0.67512,2e-5 -0.88606,0 l -11.07573,0 0,15.82248 c -10e-6,0.92825 -0.46414,1.39237 -1.39238,1.39237 l -2.65818,0 c -0.92825,0 -1.39238,-0.46412 -1.39237,-1.39237"
         style="font-size:63.28989029px;font-variant:normal;font-stretch:normal;line-height:95.99999785%;fill:#347091;font-family:Coco Gothic;-inkscape-font-specification:Coco Gothic"
         id="path3039" />
      <path
         d="m 545.27595,534.10968 c 3.33324,4e-5 6.45554,0.63294 9.36691,1.89869 2.95349,1.26585 5.52727,2.99577 7.72136,5.18977 2.19401,2.1519 3.92393,4.70459 5.18978,7.65808 1.26574,2.95356 1.89864,6.11805 1.89869,9.49348 -5e-5,3.33329 -0.63295,6.45559 -1.89869,9.36691 -1.26585,2.91134 -2.99577,5.46403 -5.18978,7.65808 -2.19409,2.15186 -4.76787,3.86068 -7.72136,5.12648 -2.91137,1.26579 -6.05477,1.89869 -9.4302,1.89869 -3.33329,0 -6.47668,-0.6329 -9.43019,-1.89869 -2.91135,-1.2658 -5.46404,-2.97462 -7.65808,-5.12648 -2.15186,-2.19405 -3.86069,-4.74674 -5.12648,-7.65808 -1.2658,-2.95351 -1.8987,-6.09691 -1.89869,-9.4302 -10e-6,-3.33324 0.63289,-6.45553 1.89869,-9.3669 1.26579,-2.95349 2.99572,-5.52728 5.18977,-7.72137 2.19404,-2.194 4.74673,-3.92392 7.65808,-5.18977 2.95351,-1.26575 6.0969,-1.89865 9.43019,-1.89869 m -18.67051,24.11345 c -1e-5,2.5738 0.48521,4.99991 1.45566,7.27833 0.97044,2.27845 2.29952,4.28263 3.98727,6.01254 1.68771,1.68774 3.67079,3.01683 5.94925,3.98727 2.27841,0.97045 4.70452,1.45567 7.27833,1.45566 2.57376,10e-6 4.97878,-0.48521 7.21505,-1.45566 2.2784,-0.97044 4.26148,-2.29953 5.94925,-3.98727 1.68769,-1.72991 3.01678,-3.73409 3.98726,-6.01254 0.9704,-2.27842 1.45563,-4.70453 1.45567,-7.27833 -4e-5,-2.57377 -0.48527,-4.97878 -1.45567,-7.21505 -0.97048,-2.27841 -2.29957,-4.26149 -3.98726,-5.94925 -1.68777,-1.68769 -3.67085,-3.01678 -5.94925,-3.98727 -2.23627,-0.9704 -4.64129,-1.45562 -7.21505,-1.45566 -2.57381,4e-5 -4.99992,0.48526 -7.27833,1.45566 -2.27846,0.97049 -4.26154,2.29958 -5.94925,3.98727 -1.68775,1.68776 -3.01683,3.67084 -3.98727,5.94925 -0.97045,2.23627 -1.45567,4.64128 -1.45566,7.21505"
         style="font-size:63.28989029px;font-variant:normal;font-stretch:normal;line-height:95.99999785%;fill:#347091;font-family:Coco Gothic;-inkscape-font-specification:Coco Gothic"
         id="path3041" />
      <path
         d="m 609.16809,574.0456 0,-11.70863 c -4e-5,-0.92823 0.46409,-1.39236 1.39238,-1.39238 l 2.65817,0 c 0.3797,2e-5 0.71725,0.1266 1.01264,0.37974 0.29531,0.21099 0.44299,0.54853 0.44303,1.01264 l 0,14.05035 c -4e-5,0.21097 -0.0633,0.44304 -0.18987,0.69619 -0.12662,0.21097 -0.35868,0.42194 -0.69619,0.6329 l -0.12658,0.12658 c -1.98312,1.47677 -4.19826,2.61598 -6.64544,3.41766 -2.40504,0.75947 -4.99993,1.13921 -7.78465,1.13921 -3.33329,0 -6.47669,-0.6329 -9.4302,-1.89869 -2.91135,-1.2658 -5.46404,-2.97462 -7.65807,-5.12648 -2.15187,-2.19405 -3.86069,-4.74674 -5.12648,-7.65808 -1.26581,-2.95351 -1.8987,-6.09691 -1.8987,-9.4302 0,-3.33324 0.63289,-6.45553 1.8987,-9.3669 1.26579,-2.95349 2.99571,-5.52728 5.18977,-7.72137 2.19403,-2.194 4.74672,-3.92392 7.65807,-5.18977 2.95351,-1.26575 6.09691,-1.89865 9.4302,-1.89869 2.99569,4e-5 5.88592,0.54856 8.67071,1.64553 0.54848,0.21102 1.18138,0.48527 1.8987,0.82277 0.75944,0.33759 1.47672,0.69624 2.15186,1.07593 0.67505,0.37978 1.24466,0.80172 1.70882,1.2658 0.46409,0.42197 0.69615,0.82281 0.69619,1.20251 -4e-5,0.2532 -0.0633,0.48526 -0.18987,0.69619 l -1.39238,2.27843 c -0.29539,0.50636 -0.65403,0.75952 -1.07592,0.75948 -0.42198,4e-5 -0.82281,-0.16874 -1.20251,-0.50632 -1.56119,-1.09698 -3.31221,-1.98304 -5.25306,-2.65817 -1.89873,-0.67506 -3.88181,-1.0126 -5.94925,-1.01264 -2.74259,4e-5 -5.27418,0.52745 -7.59479,1.58224 -2.27845,1.01268 -4.24044,2.38396 -5.88596,4.11385 -1.64555,1.72996 -2.93244,3.71304 -3.86068,5.94925 -0.92826,2.23627 -1.39239,4.57799 -1.39238,7.02517 -1e-5,2.57381 0.48521,4.99992 1.45567,7.27834 1.01262,2.23626 2.36281,4.19824 4.05055,5.88596 1.72991,1.68774 3.71299,3.01683 5.94925,3.98727 2.27841,0.92825 4.68343,1.39238 7.21505,1.39237 2.19402,10e-6 4.156,-0.29535 5.88596,-0.88606 1.72989,-0.63289 3.05897,-1.28688 3.98726,-1.96198"
         style="font-size:63.28989029px;font-variant:normal;font-stretch:normal;line-height:95.99999785%;fill:#347091;font-family:Coco Gothic;-inkscape-font-specification:Coco Gothic"
         id="path3043" />
      <path
         d="m 652.55726,549.6157 c -4e-5,-1.26576 -0.25319,-2.46827 -0.75948,-3.60752 -0.46416,-1.13918 -1.11815,-2.13073 -1.96199,-2.97463 -0.84389,-0.88602 -1.83543,-1.58221 -2.97462,-2.08857 -1.13925,-0.54847 -2.38395,-0.82272 -3.7341,-0.82276 l -14.24023,0 0,18.98696 14.30352,0 c 1.35015,3e-5 2.59485,-0.25313 3.7341,-0.75948 1.13919,-0.50629 2.10963,-1.18138 2.91133,-2.02527 0.84384,-0.88603 1.49783,-1.89867 1.96199,-3.03792 0.50629,-1.18138 0.75944,-2.40498 0.75948,-3.67081 m -29.11335,30.6956 0,-44.04977 c -10e-6,-1.01259 0.46412,-1.51891 1.39238,-1.51895 l 18.29078,0 c 2.06744,4e-5 4.00833,0.40088 5.82267,1.2025 1.81427,0.75953 3.37542,1.81436 4.68345,3.1645 1.35015,1.35022 2.40498,2.93247 3.16449,4.74674 0.80163,1.81435 1.20247,3.75523 1.20251,5.82267 -4e-5,2.99575 -0.80171,5.69612 -2.40502,8.10111 -1.60338,2.40503 -3.69194,4.19824 -6.2657,5.37964 l 8.35427,17.15156 c 0.0844,0.33754 0.12654,0.52741 0.12658,0.56961 -4e-5,0.54851 -0.37978,0.82276 -1.13922,0.82276 l -3.48094,0 c -0.42197,0 -0.75951,-0.10548 -1.01264,-0.31645 -0.211,-0.21096 -0.42197,-0.50631 -0.6329,-0.88605 l -7.65808,-16.07564 c -0.1266,2e-5 -0.35866,0.0211 -0.69618,0.0633 -0.33758,2e-5 -0.71731,2e-5 -1.13922,0 -0.37977,2e-5 -0.7806,2e-5 -1.20251,0 -0.37976,2e-5 -0.67511,2e-5 -0.88606,0 l -11.07573,0 0,15.82248 c -10e-6,0.92825 -0.46414,1.39237 -1.39238,1.39237 l -2.65817,0 c -0.92826,0 -1.39239,-0.46412 -1.39238,-1.39237"
         style="font-size:63.28989029px;font-variant:normal;font-stretch:normal;line-height:95.99999785%;fill:#347091;font-family:Coco Gothic;-inkscape-font-specification:Coco Gothic"
         id="path3045" />
      <path
         d="m 671.72619,571.45071 -3.54423,8.98717 c -0.37975,0.84386 -0.97045,1.26579 -1.77212,1.26579 l -2.72146,0 c -0.88606,0 -1.32909,-0.33754 -1.32909,-1.01263 0,-0.16878 0.0211,-0.35865 0.0633,-0.56961 0,-0.0844 0.0211,-0.16877 0.0633,-0.25316 3.03791,-7.34162 5.5906,-13.50183 7.65808,-18.48065 2.10965,-5.02097 3.83957,-9.15591 5.18977,-12.40482 1.39236,-3.29104 2.44719,-5.80153 3.16449,-7.5315 0.75946,-1.77207 1.30797,-3.05896 1.64554,-3.86068 0.33753,-0.84382 0.52739,-1.32904 0.56961,-1.45567 0.0844,-0.16872 0.12656,-0.25311 0.12658,-0.25316 0.0844,-0.21092 0.21094,-0.44298 0.37974,-0.69619 0.21094,-0.2953 0.61178,-0.44298 1.2025,-0.44302 l 1.83541,0 c 0.54849,4e-5 0.92823,0.14772 1.13922,0.44302 0.21094,0.25321 0.35862,0.48527 0.44303,0.69619 l 18.22749,44.04977 c 0.0421,0.0844 0.0843,0.16877 0.12658,0.25316 0.0421,0.25316 0.0632,0.42193 0.0633,0.50632 -5e-5,0.67509 -0.46417,1.01263 -1.39238,1.01263 l -2.72147,0 c -0.8439,0 -1.41351,-0.40083 -1.70882,-1.2025 l -3.67082,-9.05046 -23.03752,0 m 11.58205,-28.54374 -9.30361,23.1641 18.54394,0 -9.24033,-23.1641"
         style="font-size:63.28989029px;font-variant:normal;font-stretch:normal;line-height:95.99999785%;fill:#347091;font-family:Coco Gothic;-inkscape-font-specification:Coco Gothic"
         id="path3047" />
      <path
         d="m 736.77535,579.6784 -2.46831,0 c -0.50635,0 -0.92828,-0.37974 -1.2658,-1.13922 l -14.55667,-34.23983 -3.48095,36.01195 c 0,0.92825 -0.48523,1.39237 -1.45566,1.39237 l -2.65818,0 c -0.92825,0 -1.39238,-0.46412 -1.39238,-1.39237 0.75948,-7.42601 1.51896,-14.78872 2.27844,-22.08817 0.75947,-7.29941 1.51895,-14.66212 2.27844,-22.08818 -10e-6,-0.42188 0.14766,-0.75943 0.44302,-1.01263 0.29535,-0.25312 0.65399,-0.3797 1.07593,-0.37974 l 3.92398,0 c 0.67507,4e-5 1.1392,0.40088 1.39237,1.2025 l 14.68326,35.31576 c 2.44718,-5.90704 4.89438,-11.79299 7.34163,-17.65788 2.44717,-5.86483 4.89437,-11.75078 7.34162,-17.65788 0.21093,-0.80162 0.65395,-1.20246 1.32909,-1.2025 l 4.11384,0 c 0.42189,4e-5 0.75943,0.14772 1.01264,0.44302 0.25311,0.25321 0.37969,0.56966 0.37974,0.94935 l 4.62016,44.17635 c -5e-5,0.92825 -0.48527,1.39237 -1.45566,1.39237 l -2.65818,0 c -0.9283,0 -1.39243,-0.46412 -1.39238,-1.39237 l -3.54423,-36.01195 -14.55668,34.23983 c -0.29538,0.75948 -0.73841,1.13922 -1.32908,1.13922"
         style="font-size:63.28989029px;font-variant:normal;font-stretch:normal;line-height:95.99999785%;fill:#347091;font-family:Coco Gothic;-inkscape-font-specification:Coco Gothic"
         id="path3049" />
      <path
         d="m 775.68478,571.45071 -3.54423,8.98717 c -0.37975,0.84386 -0.97045,1.26579 -1.77212,1.26579 l -2.72147,0 c -0.88606,0 -1.32908,-0.33754 -1.32908,-1.01263 0,-0.16878 0.0211,-0.35865 0.0633,-0.56961 0,-0.0844 0.0211,-0.16877 0.0633,-0.25316 3.03791,-7.34162 5.5906,-13.50183 7.65807,-18.48065 2.10966,-5.02097 3.83958,-9.15591 5.18977,-12.40482 1.39237,-3.29104 2.4472,-5.80153 3.1645,-7.5315 0.75946,-1.77207 1.30797,-3.05896 1.64554,-3.86068 0.33752,-0.84382 0.52739,-1.32904 0.56961,-1.45567 0.0844,-0.16872 0.12656,-0.25311 0.12658,-0.25316 0.0844,-0.21092 0.21094,-0.44298 0.37973,-0.69619 0.21095,-0.2953 0.61179,-0.44298 1.20251,-0.44302 l 1.83541,0 c 0.54849,4e-5 0.92823,0.14772 1.13922,0.44302 0.21094,0.25321 0.35861,0.48527 0.44303,0.69619 l 18.22748,44.04977 c 0.0421,0.0844 0.0844,0.16877 0.12658,0.25316 0.0422,0.25316 0.0633,0.42193 0.0633,0.50632 -4e-5,0.67509 -0.46416,1.01263 -1.39237,1.01263 l -2.72147,0 c -0.8439,0 -1.41351,-0.40083 -1.70883,-1.2025 l -3.67081,-9.05046 -23.03752,0 m 11.58205,-28.54374 -9.30361,23.1641 18.54393,0 -9.24032,-23.1641"
         style="font-size:63.28989029px;font-variant:normal;font-stretch:normal;line-height:95.99999785%;fill:#347091;font-family:Coco Gothic;-inkscape-font-specification:Coco Gothic"
         id="path3051" />
      <path
         d="m 437.31725,601.9526 0,-6.01254 c 0,-0.80163 0.40083,-1.20246 1.2025,-1.20251 l 33.2272,0 c 0.84383,5e-5 1.26576,0.40088 1.26579,1.20251 l 0,6.01254 c -3e-5,0.8439 -0.42196,1.26584 -1.26579,1.2658 l -12.15166,0 0,37.21445 c -3e-5,0.84387 -0.40086,1.2658 -1.20251,1.2658 l -6.83531,0 c -0.80168,0 -1.20252,-0.42193 -1.20251,-1.2658 l 0,-37.21445 -11.83521,0 c -0.80167,4e-5 -1.2025,-0.4219 -1.2025,-1.2658"
         style="font-size:63.28989029px;font-variant:normal;font-weight:bold;font-stretch:normal;line-height:95.99999785%;fill:#347091;font-family:Coco Gothic;-inkscape-font-specification:Coco Gothic Bold"
         id="path3053" />
      <path
         d="m 479.80553,640.43285 0,-44.4295 c 0,-0.3375 0.0844,-0.63285 0.25316,-0.88606 0.21096,-0.25311 0.52741,-0.37969 0.94935,-0.37974 l 20.12618,0 c 2.15183,5e-5 4.13491,0.44308 5.94925,1.32909 1.85647,0.84391 3.43872,1.98313 4.74675,3.41765 1.30795,1.43462 2.32059,3.08015 3.03791,4.93662 0.75944,1.85653 1.13918,3.77633 1.13922,5.75938 -4e-5,2.6582 -0.73842,5.1687 -2.21515,7.53149 -1.43461,2.32065 -3.3544,4.17715 -5.75938,5.56951 l 8.60743,17.08827 c 0.16873,0.29536 0.16873,0.59071 0,0.88606 -0.12662,0.29535 -0.40088,0.44303 -0.82277,0.44303 l -8.1644,0 c -0.63293,0 -1.11815,-0.35864 -1.45566,-1.07593 l -7.5315,-15.18957 -9.62006,0 0,14.9997 c -2e-5,0.84387 -0.42195,1.2658 -1.2658,1.2658 l -6.77202,0 c -0.80168,0 -1.20251,-0.42193 -1.20251,-1.2658 m 19.11355,-37.5309 -9.87322,0 0,14.17693 9.87322,0 c 2.19402,3e-5 4.00833,-0.65397 5.44293,-1.96198 1.47673,-1.35016 2.21511,-3.05898 2.21515,-5.12648 -4e-5,-1.01261 -0.18991,-1.94086 -0.56961,-2.78476 -0.37977,-0.88602 -0.92829,-1.6455 -1.64554,-2.27844 -0.67512,-0.63286 -1.47679,-1.11808 -2.40502,-1.45566 -0.92827,-0.3797 -1.94091,-0.56957 -3.03791,-0.56961"
         style="font-size:63.28989029px;font-variant:normal;font-weight:bold;font-stretch:normal;line-height:95.99999785%;fill:#347091;font-family:Coco Gothic;-inkscape-font-specification:Coco Gothic Bold"
         id="path3055" />
      <path
         d="m 518.1513,640.36956 17.84775,-44.4295 c 0.37972,-0.80163 0.90713,-1.20246 1.58224,-1.20251 l 5.31636,0 c 0.75945,5e-5 1.28686,0.40088 1.58224,1.20251 l 17.84775,44.4295 c 0.21092,0.42194 0.21092,0.75948 0,1.01264 -0.16882,0.21097 -0.46417,0.31645 -0.88606,0.31645 l -6.89859,0 c -0.75952,0 -1.28694,-0.37974 -1.58225,-1.13922 l -3.03792,-7.59478 -19.42999,0 -2.97463,7.59478 c -0.29536,0.75948 -0.82278,1.13922 -1.58225,1.13922 l -6.96188,0 c -0.92826,0 -1.20251,-0.44303 -0.82277,-1.32909 m 22.08817,-33.48035 -6.77202,17.91104 13.41746,0 -6.64544,-17.91104"
         style="font-size:63.28989029px;font-variant:normal;font-weight:bold;font-stretch:normal;line-height:95.99999785%;fill:#347091;font-family:Coco Gothic;-inkscape-font-specification:Coco Gothic Bold"
         id="path3057" />
      <path
         d="m 567.69443,596.12993 c -10e-6,-0.37969 0.10548,-0.69614 0.31645,-0.94935 0.25315,-0.2953 0.61179,-0.44298 1.07593,-0.44303 l 7.40491,0 c 0.33754,5e-5 0.67508,0.0844 1.01264,0.25316 0.37973,0.12663 0.65398,0.35869 0.82277,0.69619 l 20.82237,29.93612 0,-29.93612 c 0.12655,-0.37969 0.31642,-0.63285 0.56961,-0.75948 0.29532,-0.12653 0.56957,-0.18982 0.82277,-0.18987 l 6.39228,0 c 0.3375,5e-5 0.67505,0.12663 1.01264,0.37974 0.3375,0.25321 0.50627,0.59075 0.50632,1.01264 l 0,44.17634 c -5e-5,0.92826 -0.50637,1.39238 -1.51896,1.39238 l -6.2657,0 c -0.50636,0 -0.88609,-0.0844 -1.13922,-0.25316 -0.211,-0.21096 -0.44306,-0.46412 -0.69619,-0.75948 l -21.96159,-31.64494 0,31.2652 c 0.0422,0.92826 -0.42194,1.39238 -1.39237,1.39238 l -6.39228,0 c -0.92826,0 -1.39239,-0.46412 -1.39238,-1.39238 l 0,-44.17634"
         style="font-size:63.28989029px;font-variant:normal;font-weight:bold;font-stretch:normal;line-height:95.99999785%;fill:#347091;font-family:Coco Gothic;-inkscape-font-specification:Coco Gothic Bold"
         id="path3059" />
      <path
         d="m 616.8687,634.54689 c -0.33755,-0.37973 -0.59071,-0.75947 -0.75948,-1.13921 -0.16878,-0.37974 -0.0211,-0.80167 0.44303,-1.2658 l 4.24042,-4.17714 c 0.37973,-0.33753 0.73837,-0.44301 1.07593,-0.31644 0.37973,0.0844 0.75947,0.29536 1.13921,0.63289 0.63289,0.63292 1.32908,1.28691 2.08857,1.96199 0.80166,0.63291 1.64552,1.22362 2.5316,1.77212 0.92823,0.50633 1.91977,0.92826 2.97462,1.2658 1.05481,0.29536 2.17293,0.44303 3.35437,0.44302 1.26577,10e-6 2.38389,-0.16876 3.35436,-0.50631 0.97042,-0.33754 1.79319,-0.78057 2.46831,-1.32909 0.71725,-0.5907 1.24467,-1.24469 1.58224,-1.96199 0.37971,-0.75946 0.56958,-1.54004 0.56961,-2.34172 -3e-5,-1.01263 -0.31648,-1.85649 -0.94935,-2.5316 -0.59073,-0.71727 -1.32911,-1.30797 -2.21514,-1.77212 -0.88609,-0.5063 -1.85653,-0.90713 -2.91134,-1.20251 -1.01266,-0.33752 -1.94091,-0.61178 -2.78475,-0.82276 -5.1054,-1.51894 -9.00828,-3.37544 -11.70863,-5.56951 -2.65818,-2.23622 -3.98727,-5.14755 -3.98727,-8.73401 0,-1.94085 0.40084,-3.71297 1.20251,-5.31635 0.84386,-1.6033 2.00417,-2.97458 3.48095,-4.11384 1.51894,-1.18137 3.33325,-2.08852 5.44293,-2.72147 2.10964,-0.63285 4.43027,-0.9493 6.96188,-0.94935 2.78474,5e-5 5.44291,0.65405 7.97453,1.96199 2.57376,1.30804 4.81,2.91138 6.70873,4.81003 0.75944,0.80171 0.73834,1.62448 -0.0633,2.46831 l -3.48094,3.7341 c -0.42197,0.37978 -0.82281,0.50635 -1.20251,0.37974 -0.37977,-0.16874 -0.78061,-0.4219 -1.20251,-0.75948 -0.50635,-0.4219 -1.09705,-0.88602 -1.77212,-1.39238 -0.63292,-0.50628 -1.35021,-0.9704 -2.15185,-1.39237 -0.75951,-0.46409 -1.58228,-0.84383 -2.46831,-1.13922 -0.84389,-0.29531 -1.72995,-0.44299 -2.65817,-0.44303 -0.8017,4e-5 -1.64556,0.0633 -2.5316,0.18987 -0.84388,0.12662 -1.62446,0.37978 -2.34173,0.75948 -0.6751,0.33758 -1.24471,0.8439 -1.70882,1.51896 -0.46414,0.63293 -0.69621,1.49789 -0.69619,2.59488 -2e-5,0.80171 0.21095,1.49789 0.6329,2.08857 0.46411,0.59073 1.09701,1.11815 1.89869,1.58224 0.84385,0.42197 1.8143,0.8228 2.91134,1.20251 1.1392,0.37977 2.3839,0.75951 3.7341,1.13922 2.15183,0.63293 4.17711,1.35021 6.07583,2.15186 1.89867,0.7595 3.5442,1.70885 4.93661,2.84804 1.43454,1.13924 2.57375,2.48942 3.41766,4.05055 0.84382,1.56117 1.26576,3.43877 1.26579,5.6328 -3e-5,2.19407 -0.48526,4.19824 -1.45566,6.01254 -0.97048,1.77213 -2.27847,3.29108 -3.92398,4.55688 -1.60337,1.2658 -3.48097,2.23624 -5.6328,2.91133 -2.10969,0.67509 -4.30373,1.01264 -6.58214,1.01264 -3.2911,0 -6.45559,-0.71729 -9.49349,-2.15186 -3.03792,-1.43456 -5.6328,-3.31216 -7.78465,-5.6328"
         style="font-size:63.28989029px;font-variant:normal;font-weight:bold;font-stretch:normal;line-height:95.99999785%;fill:#347091;font-family:Coco Gothic;-inkscape-font-specification:Coco Gothic Bold"
         id="path3061" />
      <path
         d="m 658.42641,640.43285 0,-44.4295 c -1e-5,-0.84382 0.40083,-1.26575 1.20251,-1.2658 l 18.41735,0 c 2.15183,5e-5 4.11382,0.42198 5.88596,1.2658 1.77209,0.84391 3.31214,1.98313 4.62017,3.41765 1.30795,1.39242 2.32059,2.99576 3.03791,4.81004 0.71725,1.81434 1.07589,3.69194 1.07593,5.6328 -4e-5,1.94092 -0.37978,3.81851 -1.13922,5.6328 -0.71732,1.77214 -1.72996,3.35438 -3.03791,4.74674 -1.30803,1.3924 -2.86918,2.51052 -4.68346,3.35436 -1.81434,0.80169 -3.77632,1.20253 -5.88596,1.20251 l -10.31625,0 0,15.6326 c -10e-6,0.84387 -0.42194,1.2658 -1.2658,1.2658 l -6.70872,0 c -0.80168,0 -1.20252,-0.42193 -1.20251,-1.2658 m 17.78446,-37.65748 -8.60743,0 0,14.05035 8.60743,0 c 2.10964,3e-5 3.81846,-0.65397 5.12648,-1.96198 1.30796,-1.35016 1.96195,-3.01679 1.96198,-4.9999 -3e-5,-0.97042 -0.1688,-1.87757 -0.50631,-2.72147 -0.33758,-0.88602 -0.8228,-1.6455 -1.45567,-2.27844 -0.63293,-0.63286 -1.39241,-1.13918 -2.27844,-1.51895 -0.84389,-0.3797 -1.79324,-0.56957 -2.84804,-0.56961"
         style="font-size:63.28989029px;font-variant:normal;font-weight:bold;font-stretch:normal;line-height:95.99999785%;fill:#347091;font-family:Coco Gothic;-inkscape-font-specification:Coco Gothic Bold"
         id="path3063" />
      <path
         d="m 744.17827,618.2181 c -5e-5,3.33329 -0.63295,6.47668 -1.89869,9.4302 -1.26585,2.91134 -2.99577,5.46403 -5.18977,7.65807 -2.1941,2.15186 -4.76788,3.86069 -7.72137,5.12648 -2.95356,1.2658 -6.09696,1.8987 -9.43019,1.8987 -3.3333,0 -6.47669,-0.6329 -9.4302,-1.8987 -2.91135,-1.26579 -5.46404,-2.97462 -7.65807,-5.12648 -2.15187,-2.19404 -3.86069,-4.74673 -5.12649,-7.65807 -1.2236,-2.95352 -1.83541,-6.09691 -1.8354,-9.4302 -1e-5,-3.37543 0.6118,-6.51883 1.8354,-9.43019 1.2658,-2.95349 2.97462,-5.50618 5.12649,-7.65808 2.19403,-2.19401 4.74672,-3.92393 7.65807,-5.18977 2.95351,-1.26575 6.0969,-1.89865 9.4302,-1.8987 3.33323,5e-5 6.47663,0.63295 9.43019,1.8987 2.95349,1.26584 5.52727,2.99576 7.72137,5.18977 2.194,2.1519 3.92392,4.70459 5.18977,7.65808 1.26574,2.91136 1.89864,6.05476 1.89869,9.43019 m -9.30361,0 c -4e-5,-2.15183 -0.37978,-4.15601 -1.13922,-6.01254 -0.75952,-1.85647 -1.81435,-3.45981 -3.16449,-4.81003 -1.30803,-1.39234 -2.86918,-2.48937 -4.68345,-3.29107 -1.81435,-0.80164 -3.79743,-1.20247 -5.94925,-1.20251 -2.10969,4e-5 -4.07168,0.40087 -5.88596,1.20251 -1.81433,0.8017 -3.39658,1.89873 -4.74675,3.29107 -1.308,1.35022 -2.34174,2.95356 -3.1012,4.81003 -0.7173,1.85653 -1.07594,3.86071 -1.07593,6.01254 -10e-6,2.10969 0.35863,4.09277 1.07593,5.94925 0.75946,1.85652 1.7932,3.48096 3.1012,4.87332 1.35017,1.3502 2.93242,2.42613 4.74675,3.22779 1.81428,0.80168 3.77627,1.20251 5.88596,1.20251 2.15182,0 4.1349,-0.40083 5.94925,-1.20251 1.81427,-0.80166 3.37542,-1.87759 4.68345,-3.22779 1.35014,-1.39236 2.40497,-3.0168 3.16449,-4.87332 0.75944,-1.85648 1.13918,-3.83956 1.13922,-5.94925"
         style="font-size:63.28989029px;font-variant:normal;font-weight:bold;font-stretch:normal;line-height:95.99999785%;fill:#347091;font-family:Coco Gothic;-inkscape-font-specification:Coco Gothic Bold"
         id="path3065" />
      <path
         d="m 752.24873,640.43285 0,-44.4295 c 0,-0.3375 0.0844,-0.63285 0.25316,-0.88606 0.21096,-0.25311 0.52741,-0.37969 0.94935,-0.37974 l 20.12619,0 c 2.15183,5e-5 4.13491,0.44308 5.94925,1.32909 1.85647,0.84391 3.43871,1.98313 4.74674,3.41765 1.30795,1.43462 2.32059,3.08015 3.03791,4.93662 0.75944,1.85653 1.13918,3.77633 1.13922,5.75938 -4e-5,2.6582 -0.73842,5.1687 -2.21514,7.53149 -1.43461,2.32065 -3.3544,4.17715 -5.75938,5.56951 l 8.60742,17.08827 c 0.16873,0.29536 0.16873,0.59071 0,0.88606 -0.12662,0.29535 -0.40088,0.44303 -0.82277,0.44303 l -8.16439,0 c -0.63293,0 -1.11816,-0.35864 -1.45567,-1.07593 l -7.5315,-15.18957 -9.62006,0 0,14.9997 c -2e-5,0.84387 -0.42195,1.2658 -1.2658,1.2658 l -6.77202,0 c -0.80168,0 -1.20251,-0.42193 -1.20251,-1.2658 m 19.11355,-37.5309 -9.87322,0 0,14.17693 9.87322,0 c 2.19402,3e-5 4.00833,-0.65397 5.44293,-1.96198 1.47673,-1.35016 2.21512,-3.05898 2.21515,-5.12648 -3e-5,-1.01261 -0.1899,-1.94086 -0.56961,-2.78476 -0.37977,-0.88602 -0.92828,-1.6455 -1.64554,-2.27844 -0.67512,-0.63286 -1.47679,-1.11808 -2.40501,-1.45566 -0.92828,-0.3797 -1.94092,-0.56957 -3.03792,-0.56961"
         style="font-size:63.28989029px;font-variant:normal;font-weight:bold;font-stretch:normal;line-height:95.99999785%;fill:#347091;font-family:Coco Gothic;-inkscape-font-specification:Coco Gothic Bold"
         id="path3067" />
      <path
         d="m 790.97423,601.9526 0,-6.01254 c 0,-0.80163 0.40083,-1.20246 1.20251,-1.20251 l 33.22719,0 c 0.84383,5e-5 1.26576,0.40088 1.2658,1.20251 l 0,6.01254 c -4e-5,0.8439 -0.42197,1.26584 -1.2658,1.2658 l -12.15166,0 0,37.21445 c -2e-5,0.84387 -0.40086,1.2658 -1.20251,1.2658 l -6.83531,0 c -0.80168,0 -1.20252,-0.42193 -1.2025,-1.2658 l 0,-37.21445 -11.83521,0 c -0.80168,4e-5 -1.20251,-0.4219 -1.20251,-1.2658"
         style="font-size:63.28989029px;font-variant:normal;font-weight:bold;font-stretch:normal;line-height:95.99999785%;fill:#347091;font-family:Coco Gothic;-inkscape-font-specification:Coco Gothic Bold"
         id="path3069" />
      <path
         d="m 833.46251,640.43285 0,-44.4295 c 0,-0.84382 0.40083,-1.26575 1.20251,-1.2658 l 30.94875,0 c 0.84383,5e-5 1.26576,0.42198 1.2658,1.2658 l 0,6.13912 c -4e-5,0.8439 -0.42197,1.26584 -1.2658,1.2658 l -22.91094,0 0,9.55677 17.46801,0 c 0.92822,3e-5 1.39235,0.42196 1.39238,1.2658 l 0,6.01254 c -3e-5,0.84388 -0.46416,1.26582 -1.39238,1.2658 l -17.46801,0 0,11.58205 23.48055,0 c 0.88602,0 1.32905,0.42194 1.32909,1.26579 l 0,6.07583 c -4e-5,0.84387 -0.44307,1.2658 -1.32909,1.2658 l -31.51836,0 c -0.80168,0 -1.20251,-0.42193 -1.20251,-1.2658"
         style="font-size:63.28989029px;font-variant:normal;font-weight:bold;font-stretch:normal;line-height:95.99999785%;fill:#347091;font-family:Coco Gothic;-inkscape-font-specification:Coco Gothic Bold"
         id="path3071" />
      <path
         d="m 441.11464,656.82493 c 0,-0.37969 0.12657,-0.69614 0.37974,-0.94935 0.25315,-0.2953 0.6118,-0.44298 1.07593,-0.44302 l 6.45557,0 c 0.88604,4e-5 1.35017,0.46417 1.39237,1.39237 l 0,37.02459 18.48065,0 c 0.37971,10e-6 0.69616,0.12659 0.94935,0.37974 0.29532,0.25317 0.443,0.61181 0.44303,1.07593 l 0,5.75938 c -3e-5,0.88606 -0.46416,1.35018 -1.39238,1.39237 l -26.39188,0 c -0.92826,0 -1.39238,-0.46412 -1.39238,-1.39237 l 0,-44.23964"
         style="font-size:63.28989029px;font-variant:normal;font-weight:bold;font-stretch:normal;line-height:95.99999785%;fill:#347091;font-family:Coco Gothic;-inkscape-font-specification:Coco Gothic Bold"
         id="path3073" />
      <path
         d="m 477.45688,701.19115 0,-44.36622 c 0,-0.88601 0.42193,-1.32904 1.2658,-1.32908 l 6.83531,0 c 0.80166,4e-5 1.20249,0.44307 1.20251,1.32908 l 0,44.36622 c -2e-5,0.84386 -0.40085,1.26579 -1.20251,1.26579 l -6.83531,0 c -0.84387,0 -1.2658,-0.42193 -1.2658,-1.26579"
         style="font-size:63.28989029px;font-variant:normal;font-weight:bold;font-stretch:normal;line-height:95.99999785%;fill:#347091;font-family:Coco Gothic;-inkscape-font-specification:Coco Gothic Bold"
         id="path3075" />
      <path
         d="m 536.35406,656.88822 -17.46801,44.42951 c -0.29538,0.80167 -0.82279,1.2025 -1.58225,1.2025 l -5.31635,0 c -0.80169,0 -1.3502,-0.40083 -1.64553,-1.2025 l -17.46801,-44.4928 c -0.21097,-0.46408 -0.23207,-0.80162 -0.0633,-1.01264 0.21096,-0.21091 0.50631,-0.3164 0.88605,-0.31644 l 7.21505,0 c 0.75947,4e-5 1.28689,0.40088 1.58225,1.2025 l 12.08837,32.78417 12.08837,-32.78417 c 0.25312,-0.80162 0.75944,-1.20246 1.51895,-1.2025 l 7.34163,0 c 0.3797,4e-5 0.65395,0.12662 0.82277,0.37973 0.21092,0.21102 0.21092,0.54856 0,1.01264"
         style="font-size:63.28989029px;font-variant:normal;font-weight:bold;font-stretch:normal;line-height:95.99999785%;fill:#347091;font-family:Coco Gothic;-inkscape-font-specification:Coco Gothic Bold"
         id="path3077" />
      <path
         d="m 542.47736,701.19115 0,-44.42951 c -10e-6,-0.3375 0.0844,-0.63285 0.25316,-0.88606 0.21096,-0.25311 0.52741,-0.37969 0.94934,-0.37973 l 20.12619,0 c 2.15183,4e-5 4.13491,0.44307 5.94925,1.32908 1.85647,0.84391 3.43871,1.98313 4.74674,3.41766 1.30795,1.43461 2.32059,3.08014 3.03792,4.93661 0.75943,1.85654 1.13917,3.77633 1.13921,5.75938 -4e-5,2.6582 -0.73842,5.1687 -2.21514,7.5315 -1.43461,2.32065 -3.3544,4.17715 -5.75938,5.56951 l 8.60742,17.08827 c 0.16873,0.29535 0.16873,0.5907 0,0.88605 -0.12662,0.29536 -0.40087,0.44303 -0.82277,0.44303 l -8.16439,0 c -0.63293,0 -1.11815,-0.35864 -1.45567,-1.07592 l -7.5315,-15.18958 -9.62006,0 0,14.99971 c -10e-6,0.84386 -0.42195,1.26579 -1.2658,1.26579 l -6.77202,0 c -0.80167,0 -1.20251,-0.42193 -1.2025,-1.26579 m 19.11354,-37.53091 -9.87322,0 0,14.17694 9.87322,0 c 2.19403,2e-5 4.00834,-0.65397 5.44293,-1.96199 1.47674,-1.35016 2.21512,-3.05898 2.21515,-5.12648 -3e-5,-1.01261 -0.1899,-1.94086 -0.56961,-2.78476 -0.37977,-0.88602 -0.92828,-1.6455 -1.64554,-2.27843 -0.67512,-0.63286 -1.47679,-1.11809 -2.40501,-1.45567 -0.92828,-0.3797 -1.94092,-0.56957 -3.03792,-0.56961"
         style="font-size:63.28989029px;font-variant:normal;font-weight:bold;font-stretch:normal;line-height:95.99999785%;fill:#347091;font-family:Coco Gothic;-inkscape-font-specification:Coco Gothic Bold"
         id="path3079" />
      <path
         d="m 585.00026,701.19115 0,-44.42951 c 0,-0.84382 0.40083,-1.26575 1.20251,-1.26579 l 30.94875,0 c 0.84383,4e-5 1.26576,0.42197 1.2658,1.26579 l 0,6.13912 c -4e-5,0.84391 -0.42197,1.26584 -1.2658,1.2658 l -22.91094,0 0,9.55677 17.46801,0 c 0.92822,3e-5 1.39235,0.42196 1.39238,1.2658 l 0,6.01254 c -3e-5,0.84389 -0.46416,1.26582 -1.39238,1.2658 l -17.46801,0 0,11.58205 23.48055,0 c 0.88602,10e-6 1.32905,0.42194 1.32909,1.2658 l 0,6.07583 c -4e-5,0.84386 -0.44307,1.26579 -1.32909,1.26579 l -31.51836,0 c -0.80168,0 -1.20251,-0.42193 -1.20251,-1.26579"
         style="font-size:63.28989029px;font-variant:normal;font-weight:bold;font-stretch:normal;line-height:95.99999785%;fill:#347091;font-family:Coco Gothic;-inkscape-font-specification:Coco Gothic Bold"
         id="path3081" />
    </g>
  </g>
</svg>
