<?xml version="1.0" encoding="UTF-8" standalone="no"?>
<!-- Created with Inkscape (http://www.inkscape.org/) -->

<svg
   xmlns:dc="http://purl.org/dc/elements/1.1/"
   xmlns:cc="http://creativecommons.org/ns#"
   xmlns:rdf="http://www.w3.org/1999/02/22-rdf-syntax-ns#"
   xmlns:svg="http://www.w3.org/2000/svg"
   xmlns="http://www.w3.org/2000/svg"
   xmlns:sodipodi="http://sodipodi.sourceforge.net/DTD/sodipodi-0.dtd"
   xmlns:inkscape="http://www.inkscape.org/namespaces/inkscape"
   width="1052.3622"
   height="744.09448"
   id="svg3556"
   version="1.1"
   inkscape:version="0.48.3.1 r9886"
   sodipodi:docname="id10.svg">
  <defs
     id="defs3558" />
  <sodipodi:namedview
     id="base"
     pagecolor="#ffffff"
     bordercolor="#666666"
     borderopacity="1.0"
     inkscape:pageopacity="0.0"
     inkscape:pageshadow="2"
     inkscape:zoom="0.39477606"
     inkscape:cx="39.275444"
     inkscape:cy="148.9698"
     inkscape:document-units="px"
     inkscape:current-layer="g5853"
     showgrid="false"
     inkscape:window-width="1600"
     inkscape:window-height="876"
     inkscape:window-x="0"
     inkscape:window-y="24"
     inkscape:window-maximized="1" />
  <metadata
     id="metadata3561">
    <rdf:RDF>
      <cc:Work
         rdf:about="">
        <dc:format>image/svg+xml</dc:format>
        <dc:type
           rdf:resource="http://purl.org/dc/dcmitype/StillImage" />
        <dc:title></dc:title>
      </cc:Work>
    </rdf:RDF>
  </metadata>
  <g
     inkscape:label="Camada 1"
     inkscape:groupmode="layer"
     id="layer1"
     transform="translate(0,-308.2677)">
    <g
       id="g5853"
       transform="translate(6.1954689,80)">
      <rect
         inkscape:export-ydpi="138"
         inkscape:export-xdpi="138"
         inkscape:export-filename="/home/gmendes/Documentos/projetos/_ciclo/GTL/g7627-3g.png"
         ry="9.3696642"
         rx="10.198668"
         y="841.85333"
         x="47.204494"
         height="69.75193"
         width="945.56226"
         id="rect15112"
         style="color:#000000;fill:#347091;fill-opacity:0.99607843;fill-rule:nonzero;stroke:none;stroke-width:1px;marker:none;visibility:visible;display:inline;overflow:visible;enable-background:accumulate" />
      <text
         inkscape:export-ydpi="138"
         inkscape:export-xdpi="138"
         inkscape:export-filename="/home/gmendes/Documentos/projetos/_ciclo/GTL/g7627-3g.png"
         sodipodi:linespacing="116%"
         id="text3231-2-0"
         y="887.4693"
         x="519.15338"
         style="font-size:16.54096603px;font-style:normal;font-weight:normal;line-height:115.99999666%;letter-spacing:0px;word-spacing:0px;fill:#ffffff;fill-opacity:1;stroke:none;font-family:Sans"
         xml:space="preserve"><tspan
           id="tspan4394-3"
           style="font-size:40px;font-style:normal;font-variant:normal;font-weight:bold;font-stretch:normal;text-align:center;line-height:115.99999666%;text-anchor:middle;fill:#ffffff;fill-opacity:1;font-family:Coco Gothic;-inkscape-font-specification:Coco Gothic Bold"
           y="887.4693"
           x="519.15338"
           sodipodi:role="line"><tspan
   style="font-size:40px;font-weight:normal;text-align:center;text-anchor:middle;-inkscape-font-specification:Coco Gothic"
   id="tspan5908">redeparana.pr.gov.br/</tspan>mobilidade</tspan></text>
      <text
         sodipodi:linespacing="125%"
         id="text41792"
         y="936.05377"
         x="303.17801"
         style="font-size:16.73762321px;font-style:normal;font-weight:normal;line-height:125%;letter-spacing:0px;word-spacing:0px;fill:#666666;fill-opacity:1;stroke:none;font-family:Sans"
         xml:space="preserve"><tspan
           y="936.05377"
           x="303.17801"
           id="tspan41794"
           sodipodi:role="line"
           style="font-style:normal;font-variant:normal;font-weight:normal;font-stretch:normal;font-family:Coco Gothic;-inkscape-font-specification:Coco Gothic">REUNIÕES DO GRUPO TRANSPORTE LIVRE: TODA PRIMEIRA TERÇA-FEIRA DO MÊS</tspan></text>
    </g>
    <g
       id="g5021"
       transform="matrix(0.71895023,0,0,0.71895023,1648.7064,130.85957)">
      <path
         inkscape:export-ydpi="138"
         inkscape:export-xdpi="138"
         inkscape:export-filename="/home/gmendes/Documentos/projetos/_ciclo/GTL/g7627-3g.png"
         d="m 475.34392,629.336 c 0,57.78856 -46.84689,104.63545 -104.63545,104.63545 -57.78857,0 -104.63546,-46.84689 -104.63546,-104.63545 0,-57.78857 46.84689,-104.63545 104.63546,-104.63545 57.78856,0 104.63545,46.84688 104.63545,104.63545 z"
         sodipodi:ry="104.63545"
         sodipodi:rx="104.63545"
         sodipodi:cy="629.336"
         sodipodi:cx="370.70847"
         id="path3934-3-9-9"
         style="color:#000000;fill:#347091;fill-opacity:1;fill-rule:nonzero;stroke:none;stroke-width:1;marker:none;visibility:visible;display:inline;overflow:visible;enable-background:accumulate"
         sodipodi:type="arc"
         transform="matrix(1.5877292,0,0,1.5877292,-2458.5549,-321.20524)" />
      <path
         inkscape:export-ydpi="138"
         inkscape:export-xdpi="138"
         inkscape:export-filename="/home/gmendes/Documentos/projetos/_ciclo/GTL/g7627-3g.png"
         transform="matrix(1.4248851,0,0,1.4248851,-2398.1872,-218.72161)"
         d="m 475.34392,629.336 c 0,57.78856 -46.84689,104.63545 -104.63545,104.63545 -57.78857,0 -104.63546,-46.84689 -104.63546,-104.63545 0,-57.78857 46.84689,-104.63545 104.63546,-104.63545 57.78856,0 104.63545,46.84688 104.63545,104.63545 z"
         sodipodi:ry="104.63545"
         sodipodi:rx="104.63545"
         sodipodi:cy="629.336"
         sodipodi:cx="370.70847"
         id="path3934-16-1"
         style="color:#000000;fill:#ffffff;fill-opacity:1;fill-rule:nonzero;stroke:none;stroke-width:1;marker:none;visibility:visible;display:inline;overflow:visible;enable-background:accumulate"
         sodipodi:type="arc" />
      <g
         inkscape:export-ydpi="138"
         inkscape:export-xdpi="138"
         inkscape:export-filename="/home/gmendes/Documentos/projetos/_ciclo/GTL/g7627-3g.png"
         transform="matrix(0.52180278,0,0,0.52180278,-2065.6463,400.22186)"
         inkscape:label="Layer 1"
         id="layer1-1-3-1-6">
        <g
           id="g34-3-1-8"
           transform="matrix(4.6403408,0,0,-4.6403408,386.10689,532.57842)">
          <path
             d="m 0,0 c 0,0 6.882,-6.44 10.105,-9.989 5.525,-6.084 9.697,-10.454 17.91,-10.71 13.614,-0.423 22.227,8.29 22.671,20.512 0.443,12.223 -10.993,23.175 -23.881,21.178 0,0 -5.991,-0.484 -11.617,-5.507 C 9.561,10.463 0,0 0,0"
             style="fill:#ffcd35;fill-opacity:1;fill-rule:nonzero;stroke:none"
             id="path36-1-9-4"
             inkscape:connector-curvature="0" />
        </g>
        <g
           id="g38-0-94-4"
           transform="matrix(4.6403408,0,0,-4.6403408,541.89842,477.06417)">
          <path
             d="m 0,0 c 0,-1.061 -0.861,-1.921 -1.921,-1.921 -1.061,0 -1.922,0.86 -1.922,1.921 0,1.061 0.861,1.922 1.922,1.922 C -0.861,1.922 0,1.061 0,0"
             style="fill:#ffffff;fill-opacity:1;fill-rule:evenodd;stroke:none"
             id="path40-7-9-9"
             inkscape:connector-curvature="0" />
        </g>
        <g
           id="g42-6-48-9"
           transform="matrix(4.6403408,0,0,-4.6403408,525.37187,487.06551)">
          <path
             d="m 0,0 1.641,-0.516 0.796,-0.843 1.406,-2.999 4.264,-2.25 -0.796,-1.453 -3.749,1.453 -1.921,1.406 -1.172,-4.349 2.811,-4.133 0,-7.732 -2.014,0 -0.329,6.374 -2.858,3.748 -2.742,-5.342 -2.601,-4.452 -1.874,1.125 2.577,4.733 1.898,6.373 2.038,5.295 -1.889,-0.429 -1.671,-3.882 -1.547,0.609 1.312,4.593 4.218,2.437 c 0,0 1.754,0.375 2.202,0.234"
             style="fill:#ffffff;fill-opacity:1;fill-rule:evenodd;stroke:none"
             id="path44-4-38-6"
             inkscape:connector-curvature="0" />
        </g>
        <g
           id="g46-2-6-3"
           transform="matrix(4.6403408,0,0,-4.6403408,373.9738,543.47023)">
          <path
             d="m 0,0 c 0,0 -6.44,-6.882 -9.989,-10.105 -6.084,-5.526 -10.454,-9.697 -10.71,-17.91 -0.424,-13.614 8.29,-22.227 20.512,-22.671 12.223,-0.443 23.174,10.993 21.178,23.881 0,0 -0.484,5.99 -5.506,11.617 -1.326,1.486 -3.032,3.246 -4.823,5.032 C 5.667,-5.179 0,0 0,0"
             style="fill:#73c3bc;fill-opacity:1;fill-rule:nonzero;stroke:none"
             id="path48-7-9-9"
             inkscape:connector-curvature="0" />
        </g>
        <g
           id="g50-6-7-9"
           transform="matrix(4.6403408,0,0,-4.6403408,379.55892,660.50983)">
          <path
             d="m 0,0 c 0,-0.756 -0.614,-1.37 -1.371,-1.37 -0.756,0 -1.37,0.614 -1.37,1.37 0,0.757 0.614,1.371 1.37,1.371 C -0.614,1.371 0,0.757 0,0"
             style="fill:#ffffff;fill-opacity:1;fill-rule:nonzero;stroke:none"
             id="path52-1-0-2"
             inkscape:connector-curvature="0" />
        </g>
        <g
           id="g54-4-7-0"
           transform="matrix(4.6403408,0,0,-4.6403408,400.27941,659.6964)">
          <path
             d="m 0,0 c 0,-0.757 -0.614,-1.371 -1.371,-1.371 -0.757,0 -1.37,0.614 -1.37,1.371 0,0.757 0.613,1.37 1.37,1.37 C -0.614,1.37 0,0.757 0,0"
             style="fill:#ffffff;fill-opacity:1;fill-rule:nonzero;stroke:none"
             id="path56-1-6-5"
             inkscape:connector-curvature="0" />
        </g>
        <g
           id="g58-9-9-5"
           transform="matrix(4.6403408,0,0,-4.6403408,335.19262,659.39244)">
          <path
             d="m 0,0 c 0,-0.757 -0.613,-1.37 -1.371,-1.37 -0.756,0 -1.37,0.613 -1.37,1.37 0,0.757 0.614,1.371 1.37,1.371 C -0.613,1.371 0,0.757 0,0"
             style="fill:#ffffff;fill-opacity:1;fill-rule:nonzero;stroke:none"
             id="path60-5-3-7"
             inkscape:connector-curvature="0" />
        </g>
        <g
           id="g62-6-5-1"
           transform="matrix(4.6403408,0,0,-4.6403408,356.08065,662.30193)">
          <path
             d="m 0,0 c 0,-0.757 -0.613,-1.37 -1.37,-1.37 -0.757,0 -1.371,0.613 -1.371,1.37 0,0.757 0.614,1.371 1.371,1.371 C -0.613,1.371 0,0.757 0,0"
             style="fill:#ffffff;fill-opacity:1;fill-rule:nonzero;stroke:none"
             id="path64-0-9-5"
             inkscape:connector-curvature="0" />
        </g>
        <g
           id="g66-3-3-1"
           transform="matrix(4.6403408,0,0,-4.6403408,339.05572,711.14757)">
          <path
             d="m 0,0 c -0.694,0 -1.256,0.562 -1.256,1.255 0,0.693 0.562,1.256 1.256,1.256 0.693,0 1.255,-0.563 1.255,-1.256 C 1.255,0.562 0.693,0 0,0 m 0,4.141 c -1.595,0 -2.886,-1.292 -2.886,-2.886 0,-1.593 1.291,-2.885 2.886,-2.885 1.594,0 2.886,1.292 2.886,2.885 0,1.594 -1.292,2.886 -2.886,2.886"
             style="fill:#ffffff;fill-opacity:1;fill-rule:evenodd;stroke:none"
             id="path68-6-9-5"
             inkscape:connector-curvature="0" />
        </g>
        <g
           id="g70-2-3-3"
           transform="matrix(4.6403408,0,0,-4.6403408,417.13269,711.14757)">
          <path
             d="m 0,0 c -0.693,0 -1.256,0.562 -1.256,1.255 0,0.693 0.563,1.256 1.256,1.256 0.693,0 1.255,-0.563 1.255,-1.256 C 1.255,0.562 0.693,0 0,0 m 0,4.141 c -1.594,0 -2.886,-1.292 -2.886,-2.886 0,-1.593 1.292,-2.885 2.886,-2.885 1.594,0 2.886,1.292 2.886,2.885 0,1.594 -1.292,2.886 -2.886,2.886"
             style="fill:#ffffff;fill-opacity:1;fill-rule:evenodd;stroke:none"
             id="path72-5-12-6"
             inkscape:connector-curvature="0" />
        </g>
        <g
           id="g74-0-4-1"
           transform="matrix(4.6403408,0,0,-4.6403408,427.75907,672.03551)">
          <path
             d="m 0,0 -3.265,0 c -0.083,0 -0.151,0.071 -0.151,0.158 l 0,4.717 c 0,0.086 0,0.282 0.274,0.282 l 0.949,0 c 0.083,0 0.563,0 0.785,-0.396 L 0.157,0.477 C 0.222,0.267 0.157,0 0,0 M -5.268,0.152 C -5.268,0.068 -5.335,0 -5.418,0 L -6.724,0 C -6.783,0.626 -7.2,1.114 -7.713,1.114 -8.225,1.114 -8.643,0.626 -8.701,0 l -0.105,0 c -0.083,0 -0.151,0.068 -0.151,0.152 l 0,4.661 c 0,0.083 0.068,0.151 0.151,0.151 l 3.388,0 c 0.083,0 0.15,-0.068 0.15,-0.151 l 0,-4.661 z m -4.771,0 C -10.039,0.068 -10.106,0 -10.19,0 l -0.163,0 c -0.089,0.582 -0.494,1.022 -0.981,1.022 -0.487,0 -0.892,-0.44 -0.981,-1.022 l -1.262,0 c -0.083,0 -0.151,0.068 -0.151,0.152 l 0,4.661 c 0,0.083 0.068,0.151 0.151,0.151 l 3.387,0 c 0.084,0 0.151,-0.068 0.151,-0.151 l 0,-4.661 z m -4.556,0 C -14.595,0.068 -14.663,0 -14.746,0 l -1.625,0 c -0.162,0.399 -0.48,0.674 -0.85,0.674 -0.37,0 -0.688,-0.275 -0.85,-0.674 l -0.062,0 c -0.083,0 -0.151,0.068 -0.151,0.152 l 0,4.661 c 0,0.083 0.068,0.151 0.151,0.151 l 3.387,0 c 0.083,0 0.151,-0.068 0.151,-0.151 l 0,-4.661 z m -4.652,0 C -19.247,0.068 -19.315,0 -19.398,0 l -1.116,0 c -0.063,0.626 -0.52,1.114 -1.081,1.114 -0.56,0 -1.017,-0.488 -1.082,-1.114 l -0.108,0 c -0.084,0 -0.152,0.068 -0.152,0.152 l 0,4.661 c 0,0.083 0.068,0.151 0.152,0.151 l 3.387,0 c 0.083,0 0.151,-0.068 0.151,-0.151 l 0,-4.661 z m 23.094,-4.44 -1.035,0 0,2.505 c 0,0 -0.037,0.415 -0.35,0.616 -0.312,0.201 -0.524,0.244 -0.524,0.244 L 1.509,0.115 -0.377,6.509 c 0,0 -1.11,0.492 -3.621,0.623 -2.511,0.131 -17.437,-0.028 -17.437,-0.028 0,0 -1.3,0.096 -1.935,-0.601 -0.559,-0.614 -0.458,-1.595 -0.458,-1.595 l 0,-8.609 19.16,0 0,-0.571 -12.313,-0.016 c 0,0 0.002,-0.016 0.004,-0.035 0.793,-0.595 1.331,-1.51 1.417,-2.556 l 9.774,0 0.003,0 c 0.15,1.799 1.655,3.214 3.493,3.214 1.838,0 3.343,-1.415 3.493,-3.214 l 0.096,0 1.878,0 c 0,0 0.648,0.157 0.67,0.627 0.023,0.468 0,1.964 0,1.964"
             style="fill:#ffffff;fill-opacity:1;fill-rule:evenodd;stroke:none"
             id="path76-3-6-1"
             inkscape:connector-curvature="0" />
        </g>
        <g
           id="g78-9-2-5"
           transform="matrix(4.6403408,0,0,-4.6403408,323.00245,701.27107)">
          <path
             d="m 0,0 c 0.006,0.026 0.013,0.051 0.02,0.076 0.008,0.03 0.016,0.059 0.025,0.089 0.043,0.147 0.094,0.285 0.153,0.412 0.258,0.575 0.664,1.069 1.169,1.436 l -2.825,0 c 0,0 -0.045,-0.84 0,-1.64 0.044,-0.8 0.696,-0.962 0.696,-0.962 0,0 0.001,0 0.665,0.01 C -0.08,-0.38 -0.047,-0.188 0,0"
             style="fill:#ffffff;fill-opacity:1;fill-rule:evenodd;stroke:none"
             id="path80-4-57-4"
             inkscape:connector-curvature="0" />
        </g>
        <g
           id="g82-5-0-4"
           transform="matrix(4.6403408,0,0,-4.6403408,363.88849,532.57842)">
          <path
             d="m 0,0 c 0,0 -6.882,-6.44 -10.104,-9.989 -5.526,-6.084 -9.698,-10.454 -17.911,-10.71 -13.614,-0.423 -22.226,8.29 -22.67,20.512 -0.443,12.223 10.992,23.175 23.88,21.178 0,0 5.991,-0.484 11.618,-5.507 C -9.56,10.463 0,0 0,0"
             style="fill:#566f3f;fill-opacity:1;fill-rule:nonzero;stroke:none"
             id="path84-2-60-9"
             inkscape:connector-curvature="0" />
        </g>
        <g
           id="g86-7-97-9"
           transform="matrix(4.6403408,0,0,-4.6403408,201.32714,495.56476)">
          <path
             d="m 0,0 c 0,-0.734 -0.595,-1.33 -1.329,-1.33 -0.734,0 -1.329,0.596 -1.329,1.33 0,0.734 0.595,1.329 1.329,1.329 C -0.595,1.329 0,0.734 0,0"
             style="fill:#ffffff;fill-opacity:1;fill-rule:evenodd;stroke:none"
             id="path88-7-5-9"
             inkscape:connector-curvature="0" />
        </g>
        <g
           id="g90-5-0-0"
           transform="matrix(4.6403408,0,0,-4.6403408,190.2655,502.29184)">
          <path
             d="m 0,0 1.134,-0.356 0.552,-0.584 2.01,0.668 1.386,2.173 1.039,-0.724 -1.517,-2.383 -3.47,-1.334 -0.81,-4.066 1.945,-2.859 0,-5.349 -1.394,0 -0.227,4.409 -1.978,2.592 -1.896,-3.695 -1.799,-3.079 -1.296,0.777 1.783,3.275 1.212,4.69 1.511,3.382 -1.309,-0.298 -1.155,-2.684 -1.07,0.421 0.908,3.177 2.918,1.685 c 0,0 1.213,0.26 1.523,0.162"
             style="fill:#ffffff;fill-opacity:1;fill-rule:evenodd;stroke:none"
             id="path92-5-2-2"
             inkscape:connector-curvature="0" />
        </g>
        <g
           id="g94-2-53-7"
           transform="matrix(4.6403408,0,0,-4.6403408,287.56557,531.61093)">
          <path
             d="m 0,0 c -1.152,0.012 -13.248,0 -13.248,0 0,0 -0.764,-0.171 -0.424,0.706 l 1.433,3.693 c 0,0 0.398,0.881 1.244,0.847 0.847,-0.034 8.696,0 8.696,0 0,0 0.931,-0.254 1.15,-0.898 C -0.933,3.705 0.237,0.706 0.237,0.706 0.237,0.706 0.644,-0.028 0,0 m -1.149,-4.161 c -0.636,0 -1.15,0.515 -1.15,1.151 0,0.635 0.514,1.15 1.15,1.15 C -0.515,-1.86 0,-2.375 0,-3.01 0,-3.646 -0.515,-4.161 -1.149,-4.161 m -11.09,0 c -0.635,0 -1.15,0.515 -1.15,1.151 0,0.635 0.515,1.15 1.15,1.15 0.635,0 1.15,-0.515 1.15,-1.15 0,-0.636 -0.515,-1.151 -1.15,-1.151 M 1.321,0 C 0.984,0.919 0.108,3.302 -0.356,4.518 -0.932,6.026 -2.66,6.077 -2.66,6.077 c 0,0 -7.302,-0.035 -8.429,-0.001 -1.127,0.034 -1.769,-1.135 -1.769,-1.135 L -14.848,0 c 0,0 -0.843,-0.724 -0.843,-1.445 l 0,-3.219 c 0,-0.911 0.524,-1.43 1.285,-1.814 l 0,-1.918 c 0,-0.333 0.271,-0.604 0.606,-0.604 l 1.599,0 c 0.334,0 0.605,0.271 0.605,0.604 l 0,1.936 9.744,0 0,-1.936 C -1.852,-8.729 -1.581,-9 -1.247,-9 l 1.6,0 c 0.334,0 0.605,0.271 0.605,0.604 l 0,1.89 c 0.793,0.371 1.345,0.908 1.345,1.842 l 0,2.951 c 0,0.766 -0.412,1.288 -0.982,1.713"
             style="fill:#ffffff;fill-opacity:1;fill-rule:evenodd;stroke:none"
             id="path96-8-21-0"
             inkscape:connector-curvature="0" />
        </g>
        <g
           id="g98-8-2-6"
           transform="matrix(4.6403408,0,0,-4.6403408,373.9738,521.25413)">
          <path
             d="m 0,0 c 0,0 -6.44,6.882 -9.989,10.105 -6.084,5.525 -10.454,9.697 -10.71,17.91 -0.424,13.614 8.29,22.227 20.512,22.671 12.223,0.443 23.174,-10.993 21.178,-23.881 0,0 -0.484,-5.991 -5.506,-11.617 C 10.462,9.56 0,0 0,0"
             style="fill:#ee393a;fill-opacity:1;fill-rule:nonzero;stroke:none"
             id="path100-3-0-3"
             inkscape:connector-curvature="0" />
        </g>
        <g
           id="g102-5-19-1"
           transform="matrix(4.6403408,0,0,-4.6403408,422.66583,422.90538)">
          <path
             d="m 0,0 c -2.588,0 -4.686,2.098 -4.686,4.686 0,1.703 0.912,3.189 2.27,4.01 l 1.769,-4.211 c 0,0 0.312,-0.63 0.871,-0.35 0.464,0.231 0.214,0.782 0.214,0.782 L -1.317,9.182 C -0.898,9.304 -0.458,9.373 0,9.373 2.588,9.373 4.686,7.274 4.686,4.686 4.686,2.098 2.588,0 0,0 m -10.208,5.905 0.006,1.474 0.881,0.023 c 0,0 0.231,0.093 0.231,0.301 0,0.208 -0.277,0.3 -0.277,0.3 l -1.04,0.023 c 0,0 -0.347,0.116 -0.347,-0.346 0,-0.463 0.003,-1.189 0.003,-1.189 l -3.402,6.113 9.255,0 -5.31,-6.699 z m -4.346,-0.676 c -0.17,1.685 -1.049,3.16 -2.335,4.122 l 1.613,2.721 3.782,-6.843 -3.06,0 z m -1.156,0 -3.621,0 1.861,3.14 c 0.956,-0.752 1.613,-1.868 1.76,-3.14 M -20.362,0 c -2.588,0 -4.686,2.098 -4.686,4.686 0,2.588 2.098,4.687 4.686,4.687 0.662,0 1.29,-0.139 1.861,-0.386 l -2.194,-3.804 c 0,0 -0.739,-0.898 0.278,-1.166 l 4.688,0 C -16.055,1.747 -18.001,0 -20.362,0 m 20.306,10.524 c -0.594,0 -1.168,-0.088 -1.71,-0.252 l -2.257,5.487 c 0,0 -0.097,0.913 -1.067,0.913 l -2.682,0 c 0,0 -0.508,-0.115 -0.462,-0.647 0.046,-0.532 0.439,-0.601 0.508,-0.601 0.069,0 2.543,0.046 2.543,0.046 l 0.67,-1.664 -10.341,-0.028 -0.57,0.976 c 0,0 2.495,0.266 2.589,0.277 0.187,0.021 0.65,0.879 -0.39,0.902 -1.04,0.023 -3.858,-0.022 -3.858,-0.022 0,0 -0.378,-0.057 -0.355,-0.404 0.023,-0.346 0.033,-0.587 0.033,-0.587 0,0 0.075,-0.35 0.446,-0.327 0.369,0.023 0.287,-10e-4 0.287,-10e-4 l 0.67,-1.272 -1.93,-3.345 c -0.755,0.352 -1.597,0.549 -2.485,0.549 -3.255,0 -5.894,-2.638 -5.894,-5.894 0,-3.254 2.639,-5.893 5.894,-5.893 3.048,0 5.554,2.314 5.862,5.28 l 3.798,0 0.018,-2.199 c 0,0 -0.691,0.023 -0.857,0.003 -0.167,-0.021 -0.221,-0.15 -0.221,-0.275 0,-0.126 0.058,-0.259 0.279,-0.275 0.221,-0.018 1.168,0.024 1.168,0.024 0,0 0.15,-0.079 0.162,0.509 l 0,2.213 6.374,8.055 0.953,-2.268 C -4.709,8.803 -5.948,6.861 -5.948,4.63 c 0,-3.254 2.637,-5.893 5.892,-5.893 3.256,0 5.894,2.639 5.894,5.893 0,3.256 -2.638,5.894 -5.894,5.894"
             style="fill:#ffffff;fill-opacity:1;fill-rule:nonzero;stroke:none"
             id="path104-6-6-7"
             inkscape:connector-curvature="0" />
        </g>
      </g>
      <g
         inkscape:export-ydpi="138"
         inkscape:export-xdpi="138"
         inkscape:export-filename="/home/gmendes/Documentos/projetos/_ciclo/GTL/id-carona02.png"
         transform="matrix(2.3426587,0,0,-2.3426587,-1919.9819,670.47261)"
         id="g86-7-7-0-9">
        <path
           inkscape:connector-curvature="0"
           id="path88-7-3-4"
           style="fill:#ffffff;fill-opacity:1;fill-rule:evenodd;stroke:none"
           d="m 0,0 c 0,-0.734 -0.595,-1.33 -1.329,-1.33 -0.734,0 -1.329,0.596 -1.329,1.33 0,0.734 0.595,1.329 1.329,1.329 C -0.595,1.329 0,0.734 0,0" />
      </g>
      <rect
         inkscape:export-ydpi="138"
         inkscape:export-xdpi="138"
         inkscape:export-filename="/home/gmendes/Documentos/projetos/_ciclo/GTL/id-carona02.png"
         ry="4.257175"
         rx="16.784452"
         y="674.94128"
         x="-1929.0393"
         height="4.257175"
         width="11.707231"
         id="rect5578-6"
         style="color:#000000;fill:#ffffff;fill-opacity:1;fill-rule:nonzero;stroke:none;stroke-width:0.1;marker:none;visibility:visible;display:inline;overflow:visible;enable-background:accumulate" />
    </g>
    <text
       xml:space="preserve"
       style="font-size:13.56211948px;font-style:normal;font-weight:normal;line-height:95.99999785%;letter-spacing:0px;word-spacing:0px;fill:#347091;fill-opacity:1;stroke:none;font-family:Sans"
       x="435.98816"
       y="581.70367"
       id="text3956-5-3-1"
       sodipodi:linespacing="95.999998%"
       inkscape:export-filename="/home/gmendes/Documentos/projetos/_ciclo/GTL/g7627-3g.png"
       inkscape:export-xdpi="138"
       inkscape:export-ydpi="138"><tspan
         sodipodi:role="line"
         id="tspan3958-3-0-6"
         x="435.98816"
         y="581.70367"
         style="font-size:63.28989029px;font-style:normal;font-variant:normal;font-weight:normal;font-stretch:normal;line-height:95.99999785%;fill:#347091;fill-opacity:1;font-family:Coco Gothic;-inkscape-font-specification:Coco Gothic">PROGRAMA</tspan><tspan
         sodipodi:role="line"
         x="435.98816"
         y="641.69867"
         id="tspan3960-7-4-5"
         style="font-size:63.28989029px;font-style:normal;font-variant:normal;font-weight:bold;font-stretch:normal;line-height:95.99999785%;fill:#347091;fill-opacity:1;font-family:Coco Gothic;-inkscape-font-specification:Coco Gothic Bold">TRANSPORTE</tspan><tspan
         sodipodi:role="line"
         x="435.98816"
         y="702.45697"
         id="tspan3962-62-5-4"
         style="font-size:63.28989029px;font-style:normal;font-variant:normal;font-weight:bold;font-stretch:normal;line-height:95.99999785%;fill:#347091;fill-opacity:1;font-family:Coco Gothic;-inkscape-font-specification:Coco Gothic Bold">LIVRE</tspan></text>
  </g>
</svg>
